<?xml version="1.0" encoding="UTF-8" standalone="no"?>
<!DOCTYPE svg PUBLIC "-//W3C//DTD SVG 1.1//EN"
 "http://www.w3.org/Graphics/SVG/1.1/DTD/svg11.dtd">
<!-- Generated by graphviz version 5.0.0 (20220707.1540)
 -->
<!-- Title: UmlClassDiagram Pages: 1 -->
<svg width="3648pt" height="2083pt"
 viewBox="0.00 0.00 3648.13 2083.40" xmlns="http://www.w3.org/2000/svg" xmlns:xlink="http://www.w3.org/1999/xlink">
<g id="graph0" class="graph" transform="scale(1 1) rotate(0) translate(4 2079.4)">
<title>UmlClassDiagram</title>
<polygon fill="white" stroke="transparent" points="-4,4 -4,-2079.4 3644.13,-2079.4 3644.13,4 -4,4"/>
<!-- 0 -->
<g id="node1" class="node">
<title>0</title>
<polygon fill="#f2f2f2" stroke="black" points="2132.44,-0.5 2132.44,-209.3 2840.16,-209.3 2840.16,-0.5 2132.44,-0.5"/>
<text text-anchor="middle" x="2486.3" y="-192.7" font-family="Times,serif" font-size="14.00">Application</text>
<text text-anchor="middle" x="2486.3" y="-175.9" font-family="Times,serif" font-size="14.00">contracts/Application.sol</text>
<polyline fill="none" stroke="black" points="2132.44,-167.7 2840.16,-167.7 "/>
<text text-anchor="start" x="2140.44" y="-151.1" font-family="Times,serif" font-size="14.00">Private:</text>
<text text-anchor="start" x="2140.44" y="-134.3" font-family="Times,serif" font-size="14.00"> &#160;&#160;manager: Manager</text>
<text text-anchor="start" x="2140.44" y="-117.5" font-family="Times,serif" font-size="14.00"> &#160;&#160;treatmentFactory: TreatmentFactory</text>
<polyline fill="none" stroke="black" points="2132.44,-109.3 2840.16,-109.3 "/>
<text text-anchor="start" x="2140.44" y="-92.7" font-family="Times,serif" font-size="14.00">External:</text>
<text text-anchor="start" x="2140.44" y="-75.9" font-family="Times,serif" font-size="14.00"> &#160;&#160;&#160;addDoctor(owner_: address, name_: bytes32, affiliate_: bytes32)</text>
<text text-anchor="start" x="2140.44" y="-59.1" font-family="Times,serif" font-size="14.00"> &#160;&#160;&#160;addPatient(nameGender_: Bytes32Pair, dob_: uint256, physique_: SmallUintPair, allergy_: string[], habits_: BoolTriple)</text>
<text text-anchor="start" x="2140.44" y="-42.3" font-family="Times,serif" font-size="14.00"> &#160;&#160;&#160;prescribe(patient_: address, medicine_: string, form_: bytes32, dosage_: Dosage, schedule_: Schedule)</text>
<text text-anchor="start" x="2140.44" y="-25.5" font-family="Times,serif" font-size="14.00">Public:</text>
<text text-anchor="start" x="2140.44" y="-8.7" font-family="Times,serif" font-size="14.00"> &#160;&#160;&#160;constructor(manager_: address)</text>
</g>
<!-- 2 -->
<g id="node3" class="node">
<title>2</title>
<polygon fill="#f2f2f2" stroke="black" points="72.02,-1325.9 72.02,-1685.9 650.57,-1685.9 650.57,-1325.9 72.02,-1325.9"/>
<text text-anchor="middle" x="361.3" y="-1669.3" font-family="Times,serif" font-size="14.00">Doctor</text>
<text text-anchor="middle" x="361.3" y="-1652.5" font-family="Times,serif" font-size="14.00">contracts/Doctor.sol</text>
<polyline fill="none" stroke="black" points="72.02,-1644.3 650.57,-1644.3 "/>
<text text-anchor="start" x="80.02" y="-1627.7" font-family="Times,serif" font-size="14.00">Private:</text>
<text text-anchor="start" x="80.02" y="-1610.9" font-family="Times,serif" font-size="14.00"> &#160;&#160;name: bytes32</text>
<text text-anchor="start" x="80.02" y="-1594.1" font-family="Times,serif" font-size="14.00"> &#160;&#160;affiliate: bytes32</text>
<text text-anchor="start" x="80.02" y="-1577.3" font-family="Times,serif" font-size="14.00"> &#160;&#160;treatments: address[]</text>
<text text-anchor="start" x="80.02" y="-1560.5" font-family="Times,serif" font-size="14.00"> &#160;&#160;init: bool</text>
<text text-anchor="start" x="80.02" y="-1543.7" font-family="Times,serif" font-size="14.00">Public:</text>
<text text-anchor="start" x="80.02" y="-1526.9" font-family="Times,serif" font-size="14.00"> &#160;&#160;DOCTOR_ROLE: bytes32</text>
<text text-anchor="start" x="80.02" y="-1510.1" font-family="Times,serif" font-size="14.00"> &#160;&#160;MANAGER_ROLE: bytes32</text>
<polyline fill="none" stroke="black" points="72.02,-1501.9 650.57,-1501.9 "/>
<text text-anchor="start" x="80.02" y="-1485.3" font-family="Times,serif" font-size="14.00">Private:</text>
<text text-anchor="start" x="80.02" y="-1468.5" font-family="Times,serif" font-size="14.00"> &#160;&#160;&#160;hasWriteAccess()</text>
<text text-anchor="start" x="80.02" y="-1451.7" font-family="Times,serif" font-size="14.00">External:</text>
<text text-anchor="start" x="80.02" y="-1434.9" font-family="Times,serif" font-size="14.00"> &#160;&#160;&#160;initialize(owner_: address, app_: address, manager_: address, name_: bytes32, affiliate_: bytes32)</text>
<text text-anchor="start" x="80.02" y="-1418.1" font-family="Times,serif" font-size="14.00"> &#160;&#160;&#160;getInfo(): (name_: bytes32, affiliate_: bytes32)</text>
<text text-anchor="start" x="80.02" y="-1401.3" font-family="Times,serif" font-size="14.00"> &#160;&#160;&#160;addTreatment(treatment_: address) &lt;&lt;canWrite&gt;&gt;</text>
<text text-anchor="start" x="80.02" y="-1384.5" font-family="Times,serif" font-size="14.00"> &#160;&#160;&#160;getTreatments(): address[] &lt;&lt;onlyRole&gt;&gt;</text>
<text text-anchor="start" x="80.02" y="-1367.7" font-family="Times,serif" font-size="14.00">Public:</text>
<text text-anchor="start" x="80.02" y="-1350.9" font-family="Times,serif" font-size="14.00"> &#160;&#160;&#160;&lt;&lt;modifier&gt;&gt; canWrite()</text>
<text text-anchor="start" x="80.02" y="-1334.1" font-family="Times,serif" font-size="14.00"> &#160;&#160;&#160;constructor()</text>
</g>
<!-- 0&#45;&gt;2 -->
<g id="edge10" class="edge">
<title>0&#45;&gt;2</title>
<path fill="none" stroke="black" stroke-dasharray="5,2" d="M2132.26,-105.49C1527.34,-108.01 345.5,-128.15 198.3,-245.8 56.99,-358.75 55.65,-879.41 102.3,-1054.2 126.92,-1146.45 175.42,-1239.43 223.87,-1316.78"/>
<polygon fill="black" stroke="black" points="221.17,-1319.06 229.47,-1325.65 227.09,-1315.32 221.17,-1319.06"/>
</g>
<!-- 4 -->
<g id="node5" class="node">
<title>4</title>
<polygon fill="#f2f2f2" stroke="black" points="1525.13,-1966.5 1525.13,-2066.5 1653.47,-2066.5 1653.47,-1966.5 1525.13,-1966.5"/>
<text text-anchor="middle" x="1589.3" y="-2049.9" font-family="Times,serif" font-size="14.00">&lt;&lt;Struct&gt;&gt;</text>
<text text-anchor="middle" x="1589.3" y="-2033.1" font-family="Times,serif" font-size="14.00">Bytes32Pair</text>
<text text-anchor="middle" x="1589.3" y="-2016.3" font-family="Times,serif" font-size="14.00">contracts/Helper.sol</text>
<polyline fill="none" stroke="black" points="1525.13,-2008.1 1653.47,-2008.1 "/>
<text text-anchor="start" x="1533.13" y="-1991.5" font-family="Times,serif" font-size="14.00">value1: bytes32</text>
<text text-anchor="start" x="1533.13" y="-1974.7" font-family="Times,serif" font-size="14.00">value2: bytes32</text>
</g>
<!-- 0&#45;&gt;4 -->
<g id="edge3" class="edge">
<title>0&#45;&gt;4</title>
<path fill="none" stroke="black" stroke-dasharray="5,2" d="M2502.8,-209.62C2504.24,-221.79 2505.46,-234.05 2506.3,-245.8 2515.56,-376.05 2509.93,-409.07 2506.3,-539.6 2502.02,-693.33 2534.98,-1809.87 2429.3,-1921.6 2377.11,-1976.78 1859.88,-2004.13 1663.98,-2012.57"/>
<polygon fill="black" stroke="black" points="1663.62,-2009.08 1653.78,-2013 1663.92,-2016.07 1663.62,-2009.08"/>
</g>
<!-- 5 -->
<g id="node6" class="node">
<title>5</title>
<polygon fill="#f2f2f2" stroke="black" points="2403.13,-1958.1 2403.13,-2074.9 2531.47,-2074.9 2531.47,-1958.1 2403.13,-1958.1"/>
<text text-anchor="middle" x="2467.3" y="-2058.3" font-family="Times,serif" font-size="14.00">&lt;&lt;Struct&gt;&gt;</text>
<text text-anchor="middle" x="2467.3" y="-2041.5" font-family="Times,serif" font-size="14.00">BoolTriple</text>
<text text-anchor="middle" x="2467.3" y="-2024.7" font-family="Times,serif" font-size="14.00">contracts/Helper.sol</text>
<polyline fill="none" stroke="black" points="2403.13,-2016.5 2531.47,-2016.5 "/>
<text text-anchor="start" x="2411.13" y="-1999.9" font-family="Times,serif" font-size="14.00">value1: bool</text>
<text text-anchor="start" x="2411.13" y="-1983.1" font-family="Times,serif" font-size="14.00">value2: bool</text>
<text text-anchor="start" x="2411.13" y="-1966.3" font-family="Times,serif" font-size="14.00">value3: bool</text>
</g>
<!-- 0&#45;&gt;5 -->
<g id="edge5" class="edge">
<title>0&#45;&gt;5</title>
<path fill="none" stroke="black" stroke-dasharray="5,2" d="M2529.37,-209.42C2533.03,-221.51 2536.14,-233.81 2538.3,-245.8 2604.21,-612.32 2656.75,-1568.54 2538.3,-1921.6 2535.11,-1931.12 2530.52,-1940.44 2525.2,-1949.29"/>
<polygon fill="black" stroke="black" points="2522.09,-1947.67 2519.66,-1957.98 2527.99,-1951.43 2522.09,-1947.67"/>
</g>
<!-- 6 -->
<g id="node7" class="node">
<title>6</title>
<polygon fill="#f2f2f2" stroke="black" points="1005.13,-1966.5 1005.13,-2066.5 1133.47,-2066.5 1133.47,-1966.5 1005.13,-1966.5"/>
<text text-anchor="middle" x="1069.3" y="-2049.9" font-family="Times,serif" font-size="14.00">&lt;&lt;Struct&gt;&gt;</text>
<text text-anchor="middle" x="1069.3" y="-2033.1" font-family="Times,serif" font-size="14.00">SmallUintPair</text>
<text text-anchor="middle" x="1069.3" y="-2016.3" font-family="Times,serif" font-size="14.00">contracts/Helper.sol</text>
<polyline fill="none" stroke="black" points="1005.13,-2008.1 1133.47,-2008.1 "/>
<text text-anchor="start" x="1013.13" y="-1991.5" font-family="Times,serif" font-size="14.00">value1: uint16</text>
<text text-anchor="start" x="1013.13" y="-1974.7" font-family="Times,serif" font-size="14.00">value2: uint16</text>
</g>
<!-- 0&#45;&gt;6 -->
<g id="edge4" class="edge">
<title>0&#45;&gt;6</title>
<path fill="none" stroke="black" stroke-dasharray="5,2" d="M2132.43,-114.19C1482.21,-131.12 156.96,-174.23 86.3,-245.8 -74.31,-408.47 34.87,-1890.39 63.3,-1921.6 125.8,-1990.21 772.53,-2009.55 994.78,-2014.2"/>
<polygon fill="black" stroke="black" points="994.97,-2017.7 1005.04,-2014.41 995.11,-2010.7 994.97,-2017.7"/>
</g>
<!-- 7 -->
<g id="node8" class="node">
<title>7</title>
<polygon fill="#f2f2f2" stroke="black" points="758.13,-1455.9 758.13,-1555.9 886.47,-1555.9 886.47,-1455.9 758.13,-1455.9"/>
<text text-anchor="middle" x="822.3" y="-1539.3" font-family="Times,serif" font-size="14.00">&lt;&lt;Struct&gt;&gt;</text>
<text text-anchor="middle" x="822.3" y="-1522.5" font-family="Times,serif" font-size="14.00">FromAppOption</text>
<text text-anchor="middle" x="822.3" y="-1505.7" font-family="Times,serif" font-size="14.00">contracts/Helper.sol</text>
<polyline fill="none" stroke="black" points="758.13,-1497.5 886.47,-1497.5 "/>
<text text-anchor="start" x="766.13" y="-1480.9" font-family="Times,serif" font-size="14.00">fromApp: bool</text>
<text text-anchor="start" x="766.13" y="-1464.1" font-family="Times,serif" font-size="14.00">addr: address</text>
</g>
<!-- 0&#45;&gt;7 -->
<g id="edge6" class="edge">
<title>0&#45;&gt;7</title>
<path fill="none" stroke="black" stroke-dasharray="5,2" d="M2132.37,-123.53C1739.75,-145.53 1132.25,-187.47 909.3,-245.8 564.09,-336.12 370.98,-275.91 177.3,-575.6 119.57,-664.93 104.95,-976.24 177.3,-1054.2 250.37,-1132.93 572.85,-1026.45 659.3,-1090.2 774.07,-1174.84 808.07,-1352.61 818.11,-1445.5"/>
<polygon fill="black" stroke="black" points="814.64,-1445.99 819.14,-1455.58 821.61,-1445.28 814.64,-1445.99"/>
</g>
<!-- 8 -->
<g id="node9" class="node">
<title>8</title>
<polygon fill="#f2f2f2" stroke="black" points="918.18,-246.3 918.18,-539.1 1776.42,-539.1 1776.42,-246.3 918.18,-246.3"/>
<text text-anchor="middle" x="1347.3" y="-522.5" font-family="Times,serif" font-size="14.00">Manager</text>
<text text-anchor="middle" x="1347.3" y="-505.7" font-family="Times,serif" font-size="14.00">contracts/Manager.sol</text>
<polyline fill="none" stroke="black" points="918.18,-497.5 1776.42,-497.5 "/>
<text text-anchor="start" x="926.18" y="-480.9" font-family="Times,serif" font-size="14.00">Private:</text>
<text text-anchor="start" x="926.18" y="-464.1" font-family="Times,serif" font-size="14.00"> &#160;&#160;doctors: mapping(address=&gt;address)</text>
<text text-anchor="start" x="926.18" y="-447.3" font-family="Times,serif" font-size="14.00"> &#160;&#160;patients: mapping(address=&gt;address)</text>
<text text-anchor="start" x="926.18" y="-430.5" font-family="Times,serif" font-size="14.00"> &#160;&#160;doctorFactory: DoctorFactory</text>
<text text-anchor="start" x="926.18" y="-413.7" font-family="Times,serif" font-size="14.00"> &#160;&#160;patientFactory: PatientFactory</text>
<polyline fill="none" stroke="black" points="918.18,-405.5 1776.42,-405.5 "/>
<text text-anchor="start" x="926.18" y="-388.9" font-family="Times,serif" font-size="14.00">External:</text>
<text text-anchor="start" x="926.18" y="-372.1" font-family="Times,serif" font-size="14.00"> &#160;&#160;&#160;addPatient(nameGender_: Bytes32Pair, dob_: uint256, physique_: SmallUintPair, allergy_: string[], habits_: BoolTriple, option_: FromAppOption)</text>
<text text-anchor="start" x="926.18" y="-355.3" font-family="Times,serif" font-size="14.00"> &#160;&#160;&#160;doctorRequest(patient_: address)</text>
<text text-anchor="start" x="926.18" y="-338.5" font-family="Times,serif" font-size="14.00"> &#160;&#160;&#160;getDoctorInfo(doctors_: address[]): (docInfo: DoctorStruct[])</text>
<text text-anchor="start" x="926.18" y="-321.7" font-family="Times,serif" font-size="14.00"> &#160;&#160;&#160;applicationRequest(patient_: address)</text>
<text text-anchor="start" x="926.18" y="-304.9" font-family="Times,serif" font-size="14.00">Public:</text>
<text text-anchor="start" x="926.18" y="-288.1" font-family="Times,serif" font-size="14.00"> &#160;&#160;&#160;getPatient(owner_: address): (patient: address)</text>
<text text-anchor="start" x="926.18" y="-271.3" font-family="Times,serif" font-size="14.00"> &#160;&#160;&#160;getDoctor(owner_: address): (doctor: address)</text>
<text text-anchor="start" x="926.18" y="-254.5" font-family="Times,serif" font-size="14.00"> &#160;&#160;&#160;addDoctor(owner_: address, name_: bytes32, affiliate_: bytes32, fromApp_: bool)</text>
</g>
<!-- 0&#45;&gt;8 -->
<g id="edge1" class="edge">
<title>0&#45;&gt;8</title>
<path fill="none" stroke="black" d="M2132.16,-194.76C2022.78,-222.21 1900.97,-252.77 1786.57,-281.48"/>
<polygon fill="black" stroke="black" points="1785.43,-278.15 1776.58,-283.98 1787.13,-284.94 1785.43,-278.15"/>
</g>
<!-- 9 -->
<g id="node10" class="node">
<title>9</title>
<polygon fill="#f2f2f2" stroke="black" points="1330.35,-1090.7 1330.35,-1921.1 2420.25,-1921.1 2420.25,-1090.7 1330.35,-1090.7"/>
<text text-anchor="middle" x="1875.3" y="-1904.5" font-family="Times,serif" font-size="14.00">Patient</text>
<text text-anchor="middle" x="1875.3" y="-1887.7" font-family="Times,serif" font-size="14.00">contracts/Patient.sol</text>
<polyline fill="none" stroke="black" points="1330.35,-1879.5 2420.25,-1879.5 "/>
<text text-anchor="start" x="1338.35" y="-1862.9" font-family="Times,serif" font-size="14.00">Private:</text>
<text text-anchor="start" x="1338.35" y="-1846.1" font-family="Times,serif" font-size="14.00"> &#160;&#160;name: bytes32</text>
<text text-anchor="start" x="1338.35" y="-1829.3" font-family="Times,serif" font-size="14.00"> &#160;&#160;gender: bytes32</text>
<text text-anchor="start" x="1338.35" y="-1812.5" font-family="Times,serif" font-size="14.00"> &#160;&#160;dob: uint256</text>
<text text-anchor="start" x="1338.35" y="-1795.7" font-family="Times,serif" font-size="14.00"> &#160;&#160;height: uint16</text>
<text text-anchor="start" x="1338.35" y="-1778.9" font-family="Times,serif" font-size="14.00"> &#160;&#160;weight: uint16</text>
<text text-anchor="start" x="1338.35" y="-1762.1" font-family="Times,serif" font-size="14.00"> &#160;&#160;alcohol: bool</text>
<text text-anchor="start" x="1338.35" y="-1745.3" font-family="Times,serif" font-size="14.00"> &#160;&#160;smoke: bool</text>
<text text-anchor="start" x="1338.35" y="-1728.5" font-family="Times,serif" font-size="14.00"> &#160;&#160;cannabis: bool</text>
<text text-anchor="start" x="1338.35" y="-1711.7" font-family="Times,serif" font-size="14.00"> &#160;&#160;init: bool</text>
<text text-anchor="start" x="1338.35" y="-1694.9" font-family="Times,serif" font-size="14.00"> &#160;&#160;allergy: string[]</text>
<text text-anchor="start" x="1338.35" y="-1678.1" font-family="Times,serif" font-size="14.00"> &#160;&#160;treatments: address[]</text>
<text text-anchor="start" x="1338.35" y="-1661.3" font-family="Times,serif" font-size="14.00"> &#160;&#160;requests: address[]</text>
<text text-anchor="start" x="1338.35" y="-1644.5" font-family="Times,serif" font-size="14.00"> &#160;&#160;doctorQueue: mapping(address=&gt;bool)</text>
<text text-anchor="start" x="1338.35" y="-1627.7" font-family="Times,serif" font-size="14.00"> &#160;&#160;appQueue: mapping(address=&gt;bool)</text>
<text text-anchor="start" x="1338.35" y="-1610.9" font-family="Times,serif" font-size="14.00">Public:</text>
<text text-anchor="start" x="1338.35" y="-1594.1" font-family="Times,serif" font-size="14.00"> &#160;&#160;PATIENT_ROLE: bytes32</text>
<text text-anchor="start" x="1338.35" y="-1577.3" font-family="Times,serif" font-size="14.00"> &#160;&#160;MANAGER_ROLE: bytes32</text>
<text text-anchor="start" x="1338.35" y="-1560.5" font-family="Times,serif" font-size="14.00"> &#160;&#160;APPLICATION_ROLE: bytes32</text>
<text text-anchor="start" x="1338.35" y="-1543.7" font-family="Times,serif" font-size="14.00"> &#160;&#160;DOCTOR_ROLE: bytes32</text>
<polyline fill="none" stroke="black" points="1330.35,-1535.5 2420.25,-1535.5 "/>
<text text-anchor="start" x="1338.35" y="-1518.9" font-family="Times,serif" font-size="14.00">Private:</text>
<text text-anchor="start" x="1338.35" y="-1502.1" font-family="Times,serif" font-size="14.00"> &#160;&#160;&#160;isPatient()</text>
<text text-anchor="start" x="1338.35" y="-1485.3" font-family="Times,serif" font-size="14.00"> &#160;&#160;&#160;findTreatment(treatment: address): (index: uint256)</text>
<text text-anchor="start" x="1338.35" y="-1468.5" font-family="Times,serif" font-size="14.00">External:</text>
<text text-anchor="start" x="1338.35" y="-1451.7" font-family="Times,serif" font-size="14.00"> &#160;&#160;&#160;checkDoctor(user_: address): bool &lt;&lt;canWrite&gt;&gt;</text>
<text text-anchor="start" x="1338.35" y="-1434.9" font-family="Times,serif" font-size="14.00"> &#160;&#160;&#160;initialize(manager_: address, owner_: address, app_: address, nameGender_: Bytes32Pair, dob_: uint256, physique_: SmallUintPair, allergy_: string[], alcoholSmokeCannabis_: BoolTriple)</text>
<text text-anchor="start" x="1338.35" y="-1418.1" font-family="Times,serif" font-size="14.00"> &#160;&#160;&#160;getInfo(): (bytes32, bytes32, uint256, uint16, uint16, string[], bool, bool, bool, address[], address[]) &lt;&lt;canRead&gt;&gt;</text>
<text text-anchor="start" x="1338.35" y="-1401.3" font-family="Times,serif" font-size="14.00"> &#160;&#160;&#160;setName(name_: bytes32) &lt;&lt;onlyPatient&gt;&gt;</text>
<text text-anchor="start" x="1338.35" y="-1384.5" font-family="Times,serif" font-size="14.00"> &#160;&#160;&#160;setGender(gender_: bytes32) &lt;&lt;onlyPatient&gt;&gt;</text>
<text text-anchor="start" x="1338.35" y="-1367.7" font-family="Times,serif" font-size="14.00"> &#160;&#160;&#160;setDob(dob_: uint256) &lt;&lt;onlyPatient&gt;&gt;</text>
<text text-anchor="start" x="1338.35" y="-1350.9" font-family="Times,serif" font-size="14.00"> &#160;&#160;&#160;setPhysique(physique_: SmallUintPair) &lt;&lt;canWrite&gt;&gt;</text>
<text text-anchor="start" x="1338.35" y="-1334.1" font-family="Times,serif" font-size="14.00"> &#160;&#160;&#160;setHabits(habits_: BoolTriple) &lt;&lt;canWrite&gt;&gt;</text>
<text text-anchor="start" x="1338.35" y="-1317.3" font-family="Times,serif" font-size="14.00"> &#160;&#160;&#160;addTreatment(treatment_: address) &lt;&lt;canWrite&gt;&gt;</text>
<text text-anchor="start" x="1338.35" y="-1300.5" font-family="Times,serif" font-size="14.00"> &#160;&#160;&#160;removeTreatment(oldTreatment: address) &lt;&lt;canWrite&gt;&gt;</text>
<text text-anchor="start" x="1338.35" y="-1283.7" font-family="Times,serif" font-size="14.00"> &#160;&#160;&#160;doctorRequestAccess(doctor_: address)</text>
<text text-anchor="start" x="1338.35" y="-1266.9" font-family="Times,serif" font-size="14.00"> &#160;&#160;&#160;appRequestAccess(app_: address)</text>
<text text-anchor="start" x="1338.35" y="-1250.1" font-family="Times,serif" font-size="14.00"> &#160;&#160;&#160;getRequestQueue(): (queue: address[]) &lt;&lt;onlyPatient&gt;&gt;</text>
<text text-anchor="start" x="1338.35" y="-1233.3" font-family="Times,serif" font-size="14.00"> &#160;&#160;&#160;acceptRequest(doctor_: address) &lt;&lt;onlyPatient&gt;&gt;</text>
<text text-anchor="start" x="1338.35" y="-1216.5" font-family="Times,serif" font-size="14.00"> &#160;&#160;&#160;revokeAccess(doctor_: address) &lt;&lt;onlyPatient&gt;&gt;</text>
<text text-anchor="start" x="1338.35" y="-1199.7" font-family="Times,serif" font-size="14.00">Public:</text>
<text text-anchor="start" x="1338.35" y="-1182.9" font-family="Times,serif" font-size="14.00"> &#160;&#160;&#160;&lt;&lt;modifier&gt;&gt; canWrite()</text>
<text text-anchor="start" x="1338.35" y="-1166.1" font-family="Times,serif" font-size="14.00"> &#160;&#160;&#160;&lt;&lt;modifier&gt;&gt; canRead()</text>
<text text-anchor="start" x="1338.35" y="-1149.3" font-family="Times,serif" font-size="14.00"> &#160;&#160;&#160;&lt;&lt;modifier&gt;&gt; onlyPatient()</text>
<text text-anchor="start" x="1338.35" y="-1132.5" font-family="Times,serif" font-size="14.00"> &#160;&#160;&#160;constructor()</text>
<text text-anchor="start" x="1338.35" y="-1115.7" font-family="Times,serif" font-size="14.00"> &#160;&#160;&#160;hasReadAccess()</text>
<text text-anchor="start" x="1338.35" y="-1098.9" font-family="Times,serif" font-size="14.00"> &#160;&#160;&#160;hasWriteAccess()</text>
</g>
<!-- 0&#45;&gt;9 -->
<g id="edge9" class="edge">
<title>0&#45;&gt;9</title>
<path fill="none" stroke="black" stroke-dasharray="5,2" d="M2490.39,-209.53C2497.21,-424.17 2503.59,-909.37 2429.3,-1054.2 2424.53,-1063.5 2419.47,-1072.68 2414.15,-1081.73"/>
<polygon fill="black" stroke="black" points="2411.11,-1079.99 2408.97,-1090.37 2417.12,-1083.59 2411.11,-1079.99"/>
</g>
<!-- 11 -->
<g id="node12" class="node">
<title>11</title>
<polygon fill="#f2f2f2" stroke="black" points="2645.41,-1455.9 2645.41,-1555.9 2793.19,-1555.9 2793.19,-1455.9 2645.41,-1455.9"/>
<text text-anchor="middle" x="2719.3" y="-1539.3" font-family="Times,serif" font-size="14.00">&lt;&lt;Struct&gt;&gt;</text>
<text text-anchor="middle" x="2719.3" y="-1522.5" font-family="Times,serif" font-size="14.00">Dosage</text>
<text text-anchor="middle" x="2719.3" y="-1505.7" font-family="Times,serif" font-size="14.00">contracts/Treatment.sol</text>
<polyline fill="none" stroke="black" points="2645.41,-1497.5 2793.19,-1497.5 "/>
<text text-anchor="start" x="2653.41" y="-1480.9" font-family="Times,serif" font-size="14.00">strength: uint16</text>
<text text-anchor="start" x="2653.41" y="-1464.1" font-family="Times,serif" font-size="14.00">unit: bytes32</text>
</g>
<!-- 0&#45;&gt;11 -->
<g id="edge7" class="edge">
<title>0&#45;&gt;11</title>
<path fill="none" stroke="black" stroke-dasharray="5,2" d="M2560.81,-209.61C2566.9,-221.41 2572.26,-233.6 2576.3,-245.8 2632.91,-416.73 2607.89,-875.67 2631.3,-1054.2 2649.89,-1196.01 2685.64,-1360.4 2705.37,-1446.08"/>
<polygon fill="black" stroke="black" points="2701.97,-1446.92 2707.64,-1455.88 2708.79,-1445.35 2701.97,-1446.92"/>
</g>
<!-- 13 -->
<g id="node14" class="node">
<title>13</title>
<polygon fill="#f2f2f2" stroke="black" points="3402.63,-1422.3 3402.63,-1589.5 3551.97,-1589.5 3551.97,-1422.3 3402.63,-1422.3"/>
<text text-anchor="middle" x="3477.3" y="-1572.9" font-family="Times,serif" font-size="14.00">&lt;&lt;Struct&gt;&gt;</text>
<text text-anchor="middle" x="3477.3" y="-1556.1" font-family="Times,serif" font-size="14.00">Schedule</text>
<text text-anchor="middle" x="3477.3" y="-1539.3" font-family="Times,serif" font-size="14.00">contracts/Treatment.sol</text>
<polyline fill="none" stroke="black" points="3402.63,-1531.1 3551.97,-1531.1 "/>
<text text-anchor="start" x="3410.63" y="-1514.5" font-family="Times,serif" font-size="14.00">startDate: uint256</text>
<text text-anchor="start" x="3410.63" y="-1497.7" font-family="Times,serif" font-size="14.00">endDate: uint256</text>
<text text-anchor="start" x="3410.63" y="-1480.9" font-family="Times,serif" font-size="14.00">frequency: Frequency</text>
<text text-anchor="start" x="3410.63" y="-1464.1" font-family="Times,serif" font-size="14.00">interval: uint8</text>
<text text-anchor="start" x="3410.63" y="-1447.3" font-family="Times,serif" font-size="14.00">daysOfWeek: bytes32[]</text>
<text text-anchor="start" x="3410.63" y="-1430.5" font-family="Times,serif" font-size="14.00">timesOfDay: uint16[]</text>
</g>
<!-- 0&#45;&gt;13 -->
<g id="edge8" class="edge">
<title>0&#45;&gt;13</title>
<path fill="none" stroke="black" stroke-dasharray="5,2" d="M2840.38,-128.21C3140.03,-150.81 3528.5,-190.34 3577.3,-245.8 3728.99,-418.19 3565.56,-1151.2 3501.08,-1412.18"/>
<polygon fill="black" stroke="black" points="3497.65,-1411.46 3498.64,-1422.01 3504.45,-1413.15 3497.65,-1411.46"/>
</g>
<!-- 15 -->
<g id="node16" class="node">
<title>15</title>
<polygon fill="#f2f2f2" stroke="black" points="2628.78,-313.5 2628.78,-471.9 3567.81,-471.9 3567.81,-313.5 2628.78,-313.5"/>
<text text-anchor="middle" x="3098.3" y="-455.3" font-family="Times,serif" font-size="14.00">TreatmentFactory</text>
<text text-anchor="middle" x="3098.3" y="-438.5" font-family="Times,serif" font-size="14.00">contracts/TreatmentFactory.sol</text>
<polyline fill="none" stroke="black" points="2628.78,-430.3 3567.81,-430.3 "/>
<text text-anchor="start" x="2636.78" y="-413.7" font-family="Times,serif" font-size="14.00">Public:</text>
<text text-anchor="start" x="2636.78" y="-396.9" font-family="Times,serif" font-size="14.00"> &#160;&#160;treatmentImplementation: address</text>
<polyline fill="none" stroke="black" points="2628.78,-388.7 3567.81,-388.7 "/>
<text text-anchor="start" x="2636.78" y="-372.1" font-family="Times,serif" font-size="14.00">External:</text>
<text text-anchor="start" x="2636.78" y="-355.3" font-family="Times,serif" font-size="14.00"> &#160;&#160;&#160;createTreatment(doctor_: address, patient_: address, medicine_: string, form_: bytes32, dosage_: Dosage, schedule_: Schedule): (clone: address) &lt;&lt;onlyOwner&gt;&gt;</text>
<text text-anchor="start" x="2636.78" y="-338.5" font-family="Times,serif" font-size="14.00">Public:</text>
<text text-anchor="start" x="2636.78" y="-321.7" font-family="Times,serif" font-size="14.00"> &#160;&#160;&#160;constructor()</text>
</g>
<!-- 0&#45;&gt;15 -->
<g id="edge2" class="edge">
<title>0&#45;&gt;15</title>
<path fill="none" stroke="black" d="M2708.11,-209.48C2778.19,-242.21 2854.66,-277.92 2921.18,-308.99"/>
<polygon fill="black" stroke="black" points="2919.96,-312.28 2930.5,-313.34 2922.92,-305.94 2919.96,-312.28"/>
</g>
<!-- 1 -->
<g id="node2" class="node">
<title>1</title>
<polygon fill="#f2f2f2" stroke="black" points="2290.73,-764.9 2290.73,-864.9 2419.87,-864.9 2419.87,-764.9 2290.73,-764.9"/>
<text text-anchor="middle" x="2355.3" y="-848.3" font-family="Times,serif" font-size="14.00">&lt;&lt;Struct&gt;&gt;</text>
<text text-anchor="middle" x="2355.3" y="-831.5" font-family="Times,serif" font-size="14.00">DoctorStruct</text>
<text text-anchor="middle" x="2355.3" y="-814.7" font-family="Times,serif" font-size="14.00">contracts/Doctor.sol</text>
<polyline fill="none" stroke="black" points="2290.73,-806.5 2419.87,-806.5 "/>
<text text-anchor="start" x="2298.73" y="-789.9" font-family="Times,serif" font-size="14.00">name: bytes32</text>
<text text-anchor="start" x="2298.73" y="-773.1" font-family="Times,serif" font-size="14.00">affiliate: bytes32</text>
</g>
<!-- 3 -->
<g id="node4" class="node">
<title>3</title>
<polygon fill="#f2f2f2" stroke="black" points="186.07,-735.7 186.07,-894.1 938.53,-894.1 938.53,-735.7 186.07,-735.7"/>
<text text-anchor="middle" x="562.3" y="-877.5" font-family="Times,serif" font-size="14.00">DoctorFactory</text>
<text text-anchor="middle" x="562.3" y="-860.7" font-family="Times,serif" font-size="14.00">contracts/DoctorFactory.sol</text>
<polyline fill="none" stroke="black" points="186.07,-852.5 938.53,-852.5 "/>
<text text-anchor="start" x="194.07" y="-835.9" font-family="Times,serif" font-size="14.00">Public:</text>
<text text-anchor="start" x="194.07" y="-819.1" font-family="Times,serif" font-size="14.00"> &#160;&#160;doctorImplementation: address</text>
<polyline fill="none" stroke="black" points="186.07,-810.9 938.53,-810.9 "/>
<text text-anchor="start" x="194.07" y="-794.3" font-family="Times,serif" font-size="14.00">External:</text>
<text text-anchor="start" x="194.07" y="-777.5" font-family="Times,serif" font-size="14.00"> &#160;&#160;&#160;createDoctor(doctor_: address, name_: bytes32, affiliate_: bytes32, option_: FromAppOption): (clone: address) &lt;&lt;onlyOwner&gt;&gt;</text>
<text text-anchor="start" x="194.07" y="-760.7" font-family="Times,serif" font-size="14.00">Public:</text>
<text text-anchor="start" x="194.07" y="-743.9" font-family="Times,serif" font-size="14.00"> &#160;&#160;&#160;constructor()</text>
</g>
<!-- 3&#45;&gt;2 -->
<g id="edge11" class="edge">
<title>3&#45;&gt;2</title>
<path fill="none" stroke="black" stroke-dasharray="5,2" d="M539.44,-894.27C509.75,-996.05 456.93,-1177.08 416.5,-1315.69"/>
<polygon fill="black" stroke="black" points="413.05,-1315.01 413.61,-1325.59 419.77,-1316.97 413.05,-1315.01"/>
</g>
<!-- 3&#45;&gt;7 -->
<g id="edge12" class="edge">
<title>3&#45;&gt;7</title>
<path fill="none" stroke="black" stroke-dasharray="5,2" d="M591.87,-894.27C644.48,-1033.69 753.21,-1321.81 800.04,-1445.92"/>
<polygon fill="black" stroke="black" points="796.9,-1447.51 803.71,-1455.63 803.45,-1445.04 796.9,-1447.51"/>
</g>
<!-- 8&#45;&gt;1 -->
<g id="edge20" class="edge">
<title>8&#45;&gt;1</title>
<path fill="none" stroke="black" stroke-dasharray="5,2" d="M1776.64,-435.76C1982.36,-464.06 2200.33,-508.7 2276.3,-575.6 2327.46,-620.66 2345.6,-699.62 2351.96,-754.23"/>
<polygon fill="black" stroke="black" points="2348.51,-754.9 2353.05,-764.47 2355.48,-754.16 2348.51,-754.9"/>
</g>
<!-- 8&#45;&gt;2 -->
<g id="edge21" class="edge">
<title>8&#45;&gt;2</title>
<path fill="none" stroke="black" stroke-dasharray="5,2" d="M917.85,-403.64C624.62,-420.56 272.62,-464.31 177.3,-575.6 38.92,-737.15 136.33,-845.47 177.3,-1054.2 194.82,-1143.46 230.13,-1237.32 265.17,-1316.15"/>
<polygon fill="black" stroke="black" points="262.16,-1317.99 269.44,-1325.69 268.55,-1315.13 262.16,-1317.99"/>
</g>
<!-- 8&#45;&gt;3 -->
<g id="edge13" class="edge">
<title>8&#45;&gt;3</title>
<path fill="none" stroke="black" d="M1023.24,-539.18C999.07,-551.17 975.2,-563.39 952.3,-575.6 862.98,-623.25 765.82,-682.59 690.82,-730.13"/>
<polygon fill="black" stroke="black" points="688.82,-727.26 682.25,-735.58 692.57,-733.17 688.82,-727.26"/>
</g>
<!-- 8&#45;&gt;4 -->
<g id="edge16" class="edge">
<title>8&#45;&gt;4</title>
<path fill="none" stroke="black" stroke-dasharray="5,2" d="M1086.25,-539.24C1076.81,-550.59 1068.38,-562.71 1061.3,-575.6 1010.11,-668.83 1050.03,-948.44 1061.3,-1054.2 1103.09,-1446.35 977.41,-1634.99 1248.3,-1921.6 1284.55,-1959.95 1425.83,-1989.13 1514.77,-2004.17"/>
<polygon fill="black" stroke="black" points="1514.38,-2007.65 1524.82,-2005.84 1515.53,-2000.75 1514.38,-2007.65"/>
</g>
<!-- 8&#45;&gt;5 -->
<g id="edge18" class="edge">
<title>8&#45;&gt;5</title>
<path fill="none" stroke="black" stroke-dasharray="5,2" d="M1776.53,-412.37C2039.63,-433.57 2342.18,-478.87 2429.3,-575.6 2612.82,-779.37 2509.78,-1690.83 2476.49,-1947.84"/>
<polygon fill="black" stroke="black" points="2473.01,-1947.42 2475.19,-1957.79 2479.95,-1948.32 2473.01,-1947.42"/>
</g>
<!-- 8&#45;&gt;6 -->
<g id="edge17" class="edge">
<title>8&#45;&gt;6</title>
<path fill="none" stroke="black" stroke-dasharray="5,2" d="M1058.45,-539.12C1048.62,-550.47 1039.8,-562.61 1032.3,-575.6 962.59,-696.35 1042.43,-1699.63 1064.15,-1956.02"/>
<polygon fill="black" stroke="black" points="1060.68,-1956.58 1065.02,-1966.25 1067.66,-1955.99 1060.68,-1956.58"/>
</g>
<!-- 8&#45;&gt;7 -->
<g id="edge15" class="edge">
<title>8&#45;&gt;7</title>
<path fill="none" stroke="black" stroke-dasharray="5,2" d="M1019.97,-539.27C1009.05,-550.54 999.07,-562.63 990.3,-575.6 930.48,-664.06 966.42,-949.14 947.3,-1054.2 921.22,-1197.47 870.33,-1361.19 842.2,-1446.4"/>
<polygon fill="black" stroke="black" points="838.87,-1445.3 839.05,-1455.89 845.52,-1447.5 838.87,-1445.3"/>
</g>
<!-- 8&#45;&gt;9 -->
<g id="edge19" class="edge">
<title>8&#45;&gt;9</title>
<path fill="none" stroke="black" stroke-dasharray="5,2" d="M1776.72,-429.46C1975.87,-455.85 2182.05,-500.67 2243.3,-575.6 2276.95,-616.77 2261.15,-1004.11 2243.3,-1054.2 2240.06,-1063.29 2236.55,-1072.33 2232.79,-1081.32"/>
<polygon fill="black" stroke="black" points="2229.51,-1080.08 2228.79,-1090.65 2235.94,-1082.84 2229.51,-1080.08"/>
</g>
<!-- 10 -->
<g id="node11" class="node">
<title>10</title>
<polygon fill="#f2f2f2" stroke="black" points="1070.17,-735.7 1070.17,-894.1 2234.43,-894.1 2234.43,-735.7 1070.17,-735.7"/>
<text text-anchor="middle" x="1652.3" y="-877.5" font-family="Times,serif" font-size="14.00">PatientFactory</text>
<text text-anchor="middle" x="1652.3" y="-860.7" font-family="Times,serif" font-size="14.00">contracts/PatientFactory.sol</text>
<polyline fill="none" stroke="black" points="1070.17,-852.5 2234.43,-852.5 "/>
<text text-anchor="start" x="1078.17" y="-835.9" font-family="Times,serif" font-size="14.00">Public:</text>
<text text-anchor="start" x="1078.17" y="-819.1" font-family="Times,serif" font-size="14.00"> &#160;&#160;patientImplementation: address</text>
<polyline fill="none" stroke="black" points="1070.17,-810.9 2234.43,-810.9 "/>
<text text-anchor="start" x="1078.17" y="-794.3" font-family="Times,serif" font-size="14.00">External:</text>
<text text-anchor="start" x="1078.17" y="-777.5" font-family="Times,serif" font-size="14.00"> &#160;&#160;&#160;createPatient(owner_: address, nameGender_: Bytes32Pair, dob_: uint256, physique_: SmallUintPair, allergy_: string[], habits_: BoolTriple, option_: FromAppOption): (clone: address) &lt;&lt;onlyOwner&gt;&gt;</text>
<text text-anchor="start" x="1078.17" y="-760.7" font-family="Times,serif" font-size="14.00">Public:</text>
<text text-anchor="start" x="1078.17" y="-743.9" font-family="Times,serif" font-size="14.00"> &#160;&#160;&#160;constructor()</text>
</g>
<!-- 8&#45;&gt;10 -->
<g id="edge14" class="edge">
<title>8&#45;&gt;10</title>
<path fill="none" stroke="black" d="M1452.9,-539.19C1498.42,-601.9 1550.1,-673.1 1589.45,-727.31"/>
<polygon fill="black" stroke="black" points="1586.7,-729.48 1595.41,-735.52 1592.36,-725.37 1586.7,-729.48"/>
</g>
<!-- 9&#45;&gt;4 -->
<g id="edge22" class="edge">
<title>9&#45;&gt;4</title>
<path fill="none" stroke="black" stroke-dasharray="5,2" d="M1642.26,-1921.33C1634.89,-1934.42 1628.06,-1946.57 1621.93,-1957.48"/>
<polygon fill="black" stroke="black" points="1618.79,-1955.92 1616.94,-1966.35 1624.89,-1959.35 1618.79,-1955.92"/>
</g>
<!-- 9&#45;&gt;5 -->
<g id="edge24" class="edge">
<title>9&#45;&gt;5</title>
<path fill="none" stroke="black" stroke-dasharray="5,2" d="M2357.68,-1921.33C2371.17,-1932.91 2383.79,-1943.75 2395.31,-1953.65"/>
<polygon fill="black" stroke="black" points="2393.25,-1956.5 2403.11,-1960.36 2397.81,-1951.19 2393.25,-1956.5"/>
</g>
<!-- 9&#45;&gt;6 -->
<g id="edge23" class="edge">
<title>9&#45;&gt;6</title>
<path fill="none" stroke="black" stroke-dasharray="5,2" d="M1330.15,-1850.9C1256.21,-1897.55 1189.6,-1939.59 1142.19,-1969.5"/>
<polygon fill="black" stroke="black" points="1140.16,-1966.65 1133.57,-1974.94 1143.89,-1972.57 1140.16,-1966.65"/>
</g>
<!-- 10&#45;&gt;4 -->
<g id="edge26" class="edge">
<title>10&#45;&gt;4</title>
<path fill="none" stroke="black" stroke-dasharray="5,2" d="M1507.87,-894.38C1437.65,-941.1 1360.19,-1007.46 1321.3,-1090.2 1242.71,-1257.41 1214.42,-1770.9 1321.3,-1921.6 1364.8,-1982.93 1451.58,-2004.51 1514.64,-2011.94"/>
<polygon fill="black" stroke="black" points="1514.62,-2015.46 1524.94,-2013.05 1515.38,-2008.5 1514.62,-2015.46"/>
</g>
<!-- 10&#45;&gt;5 -->
<g id="edge28" class="edge">
<title>10&#45;&gt;5</title>
<path fill="none" stroke="black" stroke-dasharray="5,2" d="M1840.44,-894.16C1964.34,-943.95 2130.85,-1007.6 2281.3,-1054.2 2345.96,-1074.23 2386.39,-1037.84 2429.3,-1090.2 2456.39,-1123.25 2464.7,-1739.91 2466.73,-1947.76"/>
<polygon fill="black" stroke="black" points="2463.23,-1947.97 2466.83,-1957.93 2470.23,-1947.9 2463.23,-1947.97"/>
</g>
<!-- 10&#45;&gt;6 -->
<g id="edge27" class="edge">
<title>10&#45;&gt;6</title>
<path fill="none" stroke="black" stroke-dasharray="5,2" d="M1478.53,-894.11C1396.36,-939.81 1304.22,-1005.34 1248.3,-1090.2 1062.7,-1371.82 1059.94,-1799.86 1065.9,-1955.92"/>
<polygon fill="black" stroke="black" points="1062.42,-1956.39 1066.33,-1966.24 1069.41,-1956.1 1062.42,-1956.39"/>
</g>
<!-- 10&#45;&gt;7 -->
<g id="edge29" class="edge">
<title>10&#45;&gt;7</title>
<path fill="none" stroke="black" stroke-dasharray="5,2" d="M1490.8,-894.19C1396.82,-943.68 1278.83,-1012.78 1185.3,-1090.2 1051.91,-1200.61 925.7,-1362.16 863.19,-1447.37"/>
<polygon fill="black" stroke="black" points="860.23,-1445.49 857.16,-1455.62 865.88,-1449.62 860.23,-1445.49"/>
</g>
<!-- 10&#45;&gt;9 -->
<g id="edge25" class="edge">
<title>10&#45;&gt;9</title>
<path fill="none" stroke="black" stroke-dasharray="5,2" d="M1677.66,-894.27C1693.37,-942.79 1714.9,-1009.32 1738,-1080.69"/>
<polygon fill="black" stroke="black" points="1734.71,-1081.89 1741.12,-1090.33 1741.37,-1079.73 1734.71,-1081.89"/>
</g>
<!-- 12 -->
<g id="node13" class="node">
<title>12</title>
<polygon fill="#f2f2f2" stroke="black" points="3403.41,-1958.1 3403.41,-2074.9 3551.19,-2074.9 3551.19,-1958.1 3403.41,-1958.1"/>
<text text-anchor="middle" x="3477.3" y="-2058.3" font-family="Times,serif" font-size="14.00">&lt;&lt;Enum&gt;&gt;</text>
<text text-anchor="middle" x="3477.3" y="-2041.5" font-family="Times,serif" font-size="14.00">Frequency</text>
<text text-anchor="middle" x="3477.3" y="-2024.7" font-family="Times,serif" font-size="14.00">contracts/Treatment.sol</text>
<polyline fill="none" stroke="black" points="3403.41,-2016.5 3551.19,-2016.5 "/>
<text text-anchor="start" x="3411.41" y="-1999.9" font-family="Times,serif" font-size="14.00">Interval: 0</text>
<text text-anchor="start" x="3411.41" y="-1983.1" font-family="Times,serif" font-size="14.00">DaysOfWeek: 1</text>
<text text-anchor="start" x="3411.41" y="-1966.3" font-family="Times,serif" font-size="14.00">AsNeeded: 2</text>
</g>
<!-- 13&#45;&gt;12 -->
<g id="edge30" class="edge">
<title>13&#45;&gt;12</title>
<path fill="none" stroke="black" stroke-dasharray="5,2" d="M3477.3,-1589.75C3477.3,-1689.59 3477.3,-1855.43 3477.3,-1947.91"/>
<polygon fill="black" stroke="black" points="3473.8,-1947.99 3477.3,-1957.99 3480.8,-1947.99 3473.8,-1947.99"/>
</g>
<!-- 14 -->
<g id="node15" class="node">
<title>14</title>
<polygon fill="#f2f2f2" stroke="black" points="2747,-576.1 2747,-1053.7 3449.6,-1053.7 3449.6,-576.1 2747,-576.1"/>
<text text-anchor="middle" x="3098.3" y="-1037.1" font-family="Times,serif" font-size="14.00">Treatment</text>
<text text-anchor="middle" x="3098.3" y="-1020.3" font-family="Times,serif" font-size="14.00">contracts/Treatment.sol</text>
<polyline fill="none" stroke="black" points="2747,-1012.1 3449.6,-1012.1 "/>
<text text-anchor="start" x="2755" y="-995.5" font-family="Times,serif" font-size="14.00">Private:</text>
<text text-anchor="start" x="2755" y="-978.7" font-family="Times,serif" font-size="14.00"> &#160;&#160;patient: address</text>
<text text-anchor="start" x="2755" y="-961.9" font-family="Times,serif" font-size="14.00"> &#160;&#160;form: bytes32</text>
<text text-anchor="start" x="2755" y="-945.1" font-family="Times,serif" font-size="14.00"> &#160;&#160;dosage: Dosage</text>
<text text-anchor="start" x="2755" y="-928.3" font-family="Times,serif" font-size="14.00"> &#160;&#160;schedule: Schedule</text>
<text text-anchor="start" x="2755" y="-911.5" font-family="Times,serif" font-size="14.00"> &#160;&#160;medicine: string</text>
<text text-anchor="start" x="2755" y="-894.7" font-family="Times,serif" font-size="14.00"> &#160;&#160;init: bool</text>
<text text-anchor="start" x="2755" y="-877.9" font-family="Times,serif" font-size="14.00">Public:</text>
<text text-anchor="start" x="2755" y="-861.1" font-family="Times,serif" font-size="14.00"> &#160;&#160;PATIENT_ROLE: bytes32</text>
<text text-anchor="start" x="2755" y="-844.3" font-family="Times,serif" font-size="14.00"> &#160;&#160;DOCTOR_ROLE: bytes32</text>
<polyline fill="none" stroke="black" points="2747,-836.1 3449.6,-836.1 "/>
<text text-anchor="start" x="2755" y="-819.5" font-family="Times,serif" font-size="14.00">Private:</text>
<text text-anchor="start" x="2755" y="-802.7" font-family="Times,serif" font-size="14.00"> &#160;&#160;&#160;hasReadAccess()</text>
<text text-anchor="start" x="2755" y="-785.9" font-family="Times,serif" font-size="14.00">Internal:</text>
<text text-anchor="start" x="2755" y="-769.1" font-family="Times,serif" font-size="14.00"> &#160;&#160;&#160;edit(medicine_: string) &lt;&lt;onlyRole&gt;&gt;</text>
<text text-anchor="start" x="2755" y="-752.3" font-family="Times,serif" font-size="14.00"> &#160;&#160;&#160;edit(form_: bytes32) &lt;&lt;onlyRole&gt;&gt;</text>
<text text-anchor="start" x="2755" y="-735.5" font-family="Times,serif" font-size="14.00"> &#160;&#160;&#160;edit(dosage_: Dosage) &lt;&lt;onlyRole&gt;&gt;</text>
<text text-anchor="start" x="2755" y="-718.7" font-family="Times,serif" font-size="14.00"> &#160;&#160;&#160;edit(schedule_: Schedule) &lt;&lt;onlyRole&gt;&gt;</text>
<text text-anchor="start" x="2755" y="-701.9" font-family="Times,serif" font-size="14.00">Public:</text>
<text text-anchor="start" x="2755" y="-685.1" font-family="Times,serif" font-size="14.00"> &#160;&#160;&#160;&lt;&lt;modifier&gt;&gt; canRead()</text>
<text text-anchor="start" x="2755" y="-668.3" font-family="Times,serif" font-size="14.00"> &#160;&#160;&#160;constructor()</text>
<text text-anchor="start" x="2755" y="-651.5" font-family="Times,serif" font-size="14.00"> &#160;&#160;&#160;initialize(doctor_: address, patient_: address, medicine_: string, form_: bytes32, dosage_: Dosage, schedule_: Schedule)</text>
<text text-anchor="start" x="2755" y="-634.7" font-family="Times,serif" font-size="14.00"> &#160;&#160;&#160;getPatient(): address</text>
<text text-anchor="start" x="2755" y="-617.9" font-family="Times,serif" font-size="14.00"> &#160;&#160;&#160;getMedicine(): (medicine_: string)</text>
<text text-anchor="start" x="2755" y="-601.1" font-family="Times,serif" font-size="14.00"> &#160;&#160;&#160;getTreatment(): (string, bytes32, Dosage, Schedule, bool)</text>
<text text-anchor="start" x="2755" y="-584.3" font-family="Times,serif" font-size="14.00"> &#160;&#160;&#160;isComplete(): bool</text>
</g>
<!-- 14&#45;&gt;11 -->
<g id="edge31" class="edge">
<title>14&#45;&gt;11</title>
<path fill="none" stroke="black" d="M2967.34,-1053.98C2890.16,-1194.29 2798.61,-1360.73 2751.25,-1446.82"/>
<polygon fill="black" stroke="black" points="2748.14,-1445.21 2746.39,-1455.66 2754.27,-1448.58 2748.14,-1445.21"/>
</g>
<!-- 14&#45;&gt;13 -->
<g id="edge32" class="edge">
<title>14&#45;&gt;13</title>
<path fill="none" stroke="black" d="M3229.26,-1053.98C3297.28,-1177.64 3376.46,-1321.58 3426.72,-1412.94"/>
<polygon fill="black" stroke="black" points="3423.75,-1414.82 3431.64,-1421.89 3429.89,-1411.45 3423.75,-1414.82"/>
</g>
<!-- 15&#45;&gt;11 -->
<g id="edge34" class="edge">
<title>15&#45;&gt;11</title>
<path fill="none" stroke="black" stroke-dasharray="5,2" d="M2853.46,-472.03C2807.91,-497.81 2765.99,-531.59 2738.3,-575.6 2560.74,-857.75 2657.38,-1289.71 2701.31,-1445.94"/>
<polygon fill="black" stroke="black" points="2698.02,-1447.17 2704.12,-1455.83 2704.75,-1445.25 2698.02,-1447.17"/>
</g>
<!-- 15&#45;&gt;13 -->
<g id="edge35" class="edge">
<title>15&#45;&gt;13</title>
<path fill="none" stroke="black" stroke-dasharray="5,2" d="M3343.14,-472.03C3388.69,-497.81 3430.61,-531.59 3458.3,-575.6 3624.37,-839.5 3550.57,-1234.44 3504.39,-1412.26"/>
<polygon fill="black" stroke="black" points="3500.96,-1411.55 3501.8,-1422.12 3507.73,-1413.33 3500.96,-1411.55"/>
</g>
<!-- 15&#45;&gt;14 -->
<g id="edge33" class="edge">
<title>15&#45;&gt;14</title>
<path fill="none" stroke="black" stroke-dasharray="5,2" d="M3098.3,-472.24C3098.3,-499.7 3098.3,-532.17 3098.3,-566"/>
<polygon fill="black" stroke="black" points="3094.8,-566.05 3098.3,-576.05 3101.8,-566.05 3094.8,-566.05"/>
</g>
</g>
</svg>
