<?xml version="1.0" encoding="UTF-8" standalone="no"?>
<!DOCTYPE svg PUBLIC "-//W3C//DTD SVG 1.1//EN"
 "http://www.w3.org/Graphics/SVG/1.1/DTD/svg11.dtd">
<!-- Generated by graphviz version 5.0.0 (20220707.1540)
 -->
<!-- Title: UmlClassDiagram Pages: 1 -->
<svg width="2630pt" height="1882pt"
 viewBox="0.00 0.00 2629.52 1881.80" xmlns="http://www.w3.org/2000/svg" xmlns:xlink="http://www.w3.org/1999/xlink">
<g id="graph0" class="graph" transform="scale(1 1) rotate(0) translate(4 1877.8)">
<title>UmlClassDiagram</title>
<polygon fill="white" stroke="transparent" points="-4,4 -4,-1877.8 2625.52,-1877.8 2625.52,4 -4,4"/>
<!-- 0 -->
<g id="node1" class="node">
<title>0</title>
<polygon fill="#f2f2f2" stroke="black" points="1161.73,-195.9 1161.73,-421.5 1555.23,-421.5 1555.23,-195.9 1161.73,-195.9"/>
<text text-anchor="middle" x="1358.48" y="-404.9" font-family="Times,serif" font-size="14.00">&lt;&lt;Abstract&gt;&gt;</text>
<text text-anchor="middle" x="1358.48" y="-388.1" font-family="Times,serif" font-size="14.00">Application</text>
<text text-anchor="middle" x="1358.48" y="-371.3" font-family="Times,serif" font-size="14.00">contracts/Application.sol</text>
<polyline fill="none" stroke="black" points="1161.73,-363.1 1555.23,-363.1 "/>
<text text-anchor="start" x="1169.73" y="-346.5" font-family="Times,serif" font-size="14.00">Private:</text>
<text text-anchor="start" x="1169.73" y="-329.7" font-family="Times,serif" font-size="14.00"> &#160;&#160;name: bytes32</text>
<text text-anchor="start" x="1169.73" y="-312.9" font-family="Times,serif" font-size="14.00">Internal:</text>
<text text-anchor="start" x="1169.73" y="-296.1" font-family="Times,serif" font-size="14.00"> &#160;&#160;manager: Manager</text>
<polyline fill="none" stroke="black" points="1161.73,-287.9 1555.23,-287.9 "/>
<text text-anchor="start" x="1169.73" y="-271.3" font-family="Times,serif" font-size="14.00">External:</text>
<text text-anchor="start" x="1169.73" y="-254.5" font-family="Times,serif" font-size="14.00"> &#160;&#160;&#160;addDoctor(owner_: address, name_: bytes32, affiliate_: bytes32)</text>
<text text-anchor="start" x="1169.73" y="-237.7" font-family="Times,serif" font-size="14.00">Public:</text>
<text text-anchor="start" x="1169.73" y="-220.9" font-family="Times,serif" font-size="14.00"> &#160;&#160;&#160;constructor(manager_: address, name_: bytes32)</text>
<text text-anchor="start" x="1169.73" y="-204.1" font-family="Times,serif" font-size="14.00"> &#160;&#160;&#160;getName(): (name_: bytes32)</text>
</g>
<!-- 9 -->
<g id="node10" class="node">
<title>9</title>
<polygon fill="#f2f2f2" stroke="black" points="805.73,-525.7 805.73,-868.9 1199.23,-868.9 1199.23,-525.7 805.73,-525.7"/>
<text text-anchor="middle" x="1002.48" y="-852.3" font-family="Times,serif" font-size="14.00">Manager</text>
<text text-anchor="middle" x="1002.48" y="-835.5" font-family="Times,serif" font-size="14.00">contracts/Manager.sol</text>
<polyline fill="none" stroke="black" points="805.73,-827.3 1199.23,-827.3 "/>
<text text-anchor="start" x="813.73" y="-810.7" font-family="Times,serif" font-size="14.00">Private:</text>
<text text-anchor="start" x="813.73" y="-793.9" font-family="Times,serif" font-size="14.00"> &#160;&#160;doctors: mapping(address=&gt;address)</text>
<text text-anchor="start" x="813.73" y="-777.1" font-family="Times,serif" font-size="14.00"> &#160;&#160;patients: mapping(address=&gt;address)</text>
<text text-anchor="start" x="813.73" y="-760.3" font-family="Times,serif" font-size="14.00"> &#160;&#160;doctorFactory: DoctorFactory</text>
<text text-anchor="start" x="813.73" y="-743.5" font-family="Times,serif" font-size="14.00"> &#160;&#160;patientFactory: PatientFactory</text>
<text text-anchor="start" x="813.73" y="-726.7" font-family="Times,serif" font-size="14.00">Public:</text>
<text text-anchor="start" x="813.73" y="-709.9" font-family="Times,serif" font-size="14.00"> &#160;&#160;ADMINISTRATOR_ROLE: bytes32</text>
<text text-anchor="start" x="813.73" y="-693.1" font-family="Times,serif" font-size="14.00"> &#160;&#160;APPLICATION_ROLE: bytes32</text>
<polyline fill="none" stroke="black" points="805.73,-684.9 1199.23,-684.9 "/>
<text text-anchor="start" x="813.73" y="-668.3" font-family="Times,serif" font-size="14.00">External:</text>
<text text-anchor="start" x="813.73" y="-651.5" font-family="Times,serif" font-size="14.00"> &#160;&#160;&#160;addPatient(info_: string)</text>
<text text-anchor="start" x="813.73" y="-634.7" font-family="Times,serif" font-size="14.00"> &#160;&#160;&#160;doctorRequest(patient_: address)</text>
<text text-anchor="start" x="813.73" y="-617.9" font-family="Times,serif" font-size="14.00"> &#160;&#160;&#160;getDoctorInfo(doctors_: address[]): (docInfo: DoctorStruct[])</text>
<text text-anchor="start" x="813.73" y="-601.1" font-family="Times,serif" font-size="14.00">Public:</text>
<text text-anchor="start" x="813.73" y="-584.3" font-family="Times,serif" font-size="14.00"> &#160;&#160;&#160;constructor()</text>
<text text-anchor="start" x="813.73" y="-567.5" font-family="Times,serif" font-size="14.00"> &#160;&#160;&#160;getPatient(owner_: address): (patient: address)</text>
<text text-anchor="start" x="813.73" y="-550.7" font-family="Times,serif" font-size="14.00"> &#160;&#160;&#160;getDoctor(owner_: address): (doctor: address)</text>
<text text-anchor="start" x="813.73" y="-533.9" font-family="Times,serif" font-size="14.00"> &#160;&#160;&#160;addDoctor(owner_: address, name_: bytes32, affiliate_: bytes32)</text>
</g>
<!-- 0&#45;&gt;9 -->
<g id="edge1" class="edge">
<title>0&#45;&gt;9</title>
<path fill="none" stroke="black" d="M1255.51,-421.52C1227.73,-451.69 1196.97,-485.09 1166.74,-517.92"/>
<polygon fill="black" stroke="black" points="1164.09,-515.63 1159.89,-525.36 1169.24,-520.37 1164.09,-515.63"/>
</g>
<!-- 1 -->
<g id="node2" class="node">
<title>1</title>
<polygon fill="#f2f2f2" stroke="black" points="1167.59,-0.5 1167.59,-158.9 1773.37,-158.9 1773.37,-0.5 1167.59,-0.5"/>
<text text-anchor="middle" x="1470.48" y="-142.3" font-family="Times,serif" font-size="14.00">Chaindoser</text>
<text text-anchor="middle" x="1470.48" y="-125.5" font-family="Times,serif" font-size="14.00">contracts/Chaindoser.sol</text>
<polyline fill="none" stroke="black" points="1167.59,-117.3 1773.37,-117.3 "/>
<text text-anchor="start" x="1175.59" y="-100.7" font-family="Times,serif" font-size="14.00">Private:</text>
<text text-anchor="start" x="1175.59" y="-83.9" font-family="Times,serif" font-size="14.00"> &#160;&#160;treatmentFactory: TreatmentFactory</text>
<polyline fill="none" stroke="black" points="1167.59,-75.7 1773.37,-75.7 "/>
<text text-anchor="start" x="1175.59" y="-59.1" font-family="Times,serif" font-size="14.00">External:</text>
<text text-anchor="start" x="1175.59" y="-42.3" font-family="Times,serif" font-size="14.00"> &#160;&#160;&#160;prescribe(patient_: address, medicine_: string, form_: bytes32, dosage_: Dosage, schedule_: Schedule)</text>
<text text-anchor="start" x="1175.59" y="-25.5" font-family="Times,serif" font-size="14.00">Public:</text>
<text text-anchor="start" x="1175.59" y="-8.7" font-family="Times,serif" font-size="14.00"> &#160;&#160;&#160;constructor(manager_: address, name_: bytes32)</text>
</g>
<!-- 1&#45;&gt;0 -->
<g id="edge2" class="edge">
<title>1&#45;&gt;0</title>
<path fill="none" stroke="black" d="M1431.78,-159.14C1430.23,-162.27 1428.67,-165.44 1427.09,-168.64"/>
<polygon fill="none" stroke="black" points="1417.64,-164.06 1413.79,-195.61 1436.48,-173.35 1417.64,-164.06"/>
</g>
<!-- 3 -->
<g id="node4" class="node">
<title>3</title>
<polygon fill="#f2f2f2" stroke="black" points="0,-1345.3 0,-1705.3 494.96,-1705.3 494.96,-1345.3 0,-1345.3"/>
<text text-anchor="middle" x="247.48" y="-1688.7" font-family="Times,serif" font-size="14.00">Doctor</text>
<text text-anchor="middle" x="247.48" y="-1671.9" font-family="Times,serif" font-size="14.00">contracts/Doctor.sol</text>
<polyline fill="none" stroke="black" points="0,-1663.7 494.96,-1663.7 "/>
<text text-anchor="start" x="8" y="-1647.1" font-family="Times,serif" font-size="14.00">Private:</text>
<text text-anchor="start" x="8" y="-1630.3" font-family="Times,serif" font-size="14.00"> &#160;&#160;name: bytes32</text>
<text text-anchor="start" x="8" y="-1613.5" font-family="Times,serif" font-size="14.00"> &#160;&#160;affiliate: bytes32</text>
<text text-anchor="start" x="8" y="-1596.7" font-family="Times,serif" font-size="14.00"> &#160;&#160;treatments: address[]</text>
<text text-anchor="start" x="8" y="-1579.9" font-family="Times,serif" font-size="14.00"> &#160;&#160;init: bool</text>
<text text-anchor="start" x="8" y="-1563.1" font-family="Times,serif" font-size="14.00">Public:</text>
<text text-anchor="start" x="8" y="-1546.3" font-family="Times,serif" font-size="14.00"> &#160;&#160;DOCTOR_ROLE: bytes32</text>
<text text-anchor="start" x="8" y="-1529.5" font-family="Times,serif" font-size="14.00"> &#160;&#160;MANAGER_ROLE: bytes32</text>
<polyline fill="none" stroke="black" points="0,-1521.3 494.96,-1521.3 "/>
<text text-anchor="start" x="8" y="-1504.7" font-family="Times,serif" font-size="14.00">Private:</text>
<text text-anchor="start" x="8" y="-1487.9" font-family="Times,serif" font-size="14.00"> &#160;&#160;&#160;hasWriteAccess()</text>
<text text-anchor="start" x="8" y="-1471.1" font-family="Times,serif" font-size="14.00">External:</text>
<text text-anchor="start" x="8" y="-1454.3" font-family="Times,serif" font-size="14.00"> &#160;&#160;&#160;initialize(owner_: address, manager_: address, name_: bytes32, affiliate_: bytes32)</text>
<text text-anchor="start" x="8" y="-1437.5" font-family="Times,serif" font-size="14.00"> &#160;&#160;&#160;getInfo(): (name_: bytes32, affiliate_: bytes32)</text>
<text text-anchor="start" x="8" y="-1420.7" font-family="Times,serif" font-size="14.00"> &#160;&#160;&#160;addTreatment(treatment_: address) &lt;&lt;onlyRole&gt;&gt;</text>
<text text-anchor="start" x="8" y="-1403.9" font-family="Times,serif" font-size="14.00"> &#160;&#160;&#160;getTreatments(): address[] &lt;&lt;onlyRole&gt;&gt;</text>
<text text-anchor="start" x="8" y="-1387.1" font-family="Times,serif" font-size="14.00">Public:</text>
<text text-anchor="start" x="8" y="-1370.3" font-family="Times,serif" font-size="14.00"> &#160;&#160;&#160;&lt;&lt;modifier&gt;&gt; canWrite()</text>
<text text-anchor="start" x="8" y="-1353.5" font-family="Times,serif" font-size="14.00"> &#160;&#160;&#160;constructor()</text>
</g>
<!-- 1&#45;&gt;3 -->
<g id="edge7" class="edge">
<title>1&#45;&gt;3</title>
<path fill="none" stroke="black" stroke-dasharray="5,2" d="M1229.77,-159.04C1203.2,-170.17 1176.94,-182.33 1152.48,-195.4 678.92,-448.51 445.34,-481.82 227.48,-972.6 177.28,-1085.7 182.79,-1225.03 200.6,-1335.38"/>
<polygon fill="black" stroke="black" points="197.16,-1336 202.25,-1345.29 204.06,-1334.86 197.16,-1336"/>
</g>
<!-- 10 -->
<g id="node11" class="node">
<title>10</title>
<polygon fill="#f2f2f2" stroke="black" points="1351.95,-1177.3 1351.95,-1873.3 1719.01,-1873.3 1719.01,-1177.3 1351.95,-1177.3"/>
<text text-anchor="middle" x="1535.48" y="-1856.7" font-family="Times,serif" font-size="14.00">Patient</text>
<text text-anchor="middle" x="1535.48" y="-1839.9" font-family="Times,serif" font-size="14.00">contracts/Patient.sol</text>
<polyline fill="none" stroke="black" points="1351.95,-1831.7 1719.01,-1831.7 "/>
<text text-anchor="start" x="1359.95" y="-1815.1" font-family="Times,serif" font-size="14.00">Private:</text>
<text text-anchor="start" x="1359.95" y="-1798.3" font-family="Times,serif" font-size="14.00"> &#160;&#160;info: string</text>
<text text-anchor="start" x="1359.95" y="-1781.5" font-family="Times,serif" font-size="14.00"> &#160;&#160;init: bool</text>
<text text-anchor="start" x="1359.95" y="-1764.7" font-family="Times,serif" font-size="14.00"> &#160;&#160;treatments: address[]</text>
<text text-anchor="start" x="1359.95" y="-1747.9" font-family="Times,serif" font-size="14.00"> &#160;&#160;requests: address[]</text>
<text text-anchor="start" x="1359.95" y="-1731.1" font-family="Times,serif" font-size="14.00"> &#160;&#160;doctorQueue: mapping(address=&gt;bool)</text>
<text text-anchor="start" x="1359.95" y="-1714.3" font-family="Times,serif" font-size="14.00"> &#160;&#160;updates: string[]</text>
<text text-anchor="start" x="1359.95" y="-1697.5" font-family="Times,serif" font-size="14.00">Public:</text>
<text text-anchor="start" x="1359.95" y="-1680.7" font-family="Times,serif" font-size="14.00"> &#160;&#160;PATIENT_ROLE: bytes32</text>
<text text-anchor="start" x="1359.95" y="-1663.9" font-family="Times,serif" font-size="14.00"> &#160;&#160;MANAGER_ROLE: bytes32</text>
<text text-anchor="start" x="1359.95" y="-1647.1" font-family="Times,serif" font-size="14.00"> &#160;&#160;APPLICATION_ROLE: bytes32</text>
<text text-anchor="start" x="1359.95" y="-1630.3" font-family="Times,serif" font-size="14.00"> &#160;&#160;DOCTOR_ROLE: bytes32</text>
<polyline fill="none" stroke="black" points="1351.95,-1622.1 1719.01,-1622.1 "/>
<text text-anchor="start" x="1359.95" y="-1605.5" font-family="Times,serif" font-size="14.00">Private:</text>
<text text-anchor="start" x="1359.95" y="-1588.7" font-family="Times,serif" font-size="14.00"> &#160;&#160;&#160;isPatient()</text>
<text text-anchor="start" x="1359.95" y="-1571.9" font-family="Times,serif" font-size="14.00"> &#160;&#160;&#160;findTreatment(treatment: address): (index: uint256)</text>
<text text-anchor="start" x="1359.95" y="-1555.1" font-family="Times,serif" font-size="14.00">External:</text>
<text text-anchor="start" x="1359.95" y="-1538.3" font-family="Times,serif" font-size="14.00"> &#160;&#160;&#160;checkDoctor(user_: address): bool &lt;&lt;canWrite&gt;&gt;</text>
<text text-anchor="start" x="1359.95" y="-1521.5" font-family="Times,serif" font-size="14.00"> &#160;&#160;&#160;initialize(manager_: address, owner_: address, info_: string)</text>
<text text-anchor="start" x="1359.95" y="-1504.7" font-family="Times,serif" font-size="14.00"> &#160;&#160;&#160;getInfo(): string &lt;&lt;canRead&gt;&gt;</text>
<text text-anchor="start" x="1359.95" y="-1487.9" font-family="Times,serif" font-size="14.00"> &#160;&#160;&#160;getRequests(): address[] &lt;&lt;onlyPatient&gt;&gt;</text>
<text text-anchor="start" x="1359.95" y="-1471.1" font-family="Times,serif" font-size="14.00"> &#160;&#160;&#160;getTreatments(): address[] &lt;&lt;canRead&gt;&gt;</text>
<text text-anchor="start" x="1359.95" y="-1454.3" font-family="Times,serif" font-size="14.00"> &#160;&#160;&#160;getUpdates(): string[]</text>
<text text-anchor="start" x="1359.95" y="-1437.5" font-family="Times,serif" font-size="14.00"> &#160;&#160;&#160;addUpdate(newInfo: string) &lt;&lt;canWrite&gt;&gt;</text>
<text text-anchor="start" x="1359.95" y="-1420.7" font-family="Times,serif" font-size="14.00"> &#160;&#160;&#160;approveUpdate(index: uint256) &lt;&lt;onlyPatient&gt;&gt;</text>
<text text-anchor="start" x="1359.95" y="-1403.9" font-family="Times,serif" font-size="14.00"> &#160;&#160;&#160;updateInfo(info_: string) &lt;&lt;onlyPatient&gt;&gt;</text>
<text text-anchor="start" x="1359.95" y="-1387.1" font-family="Times,serif" font-size="14.00"> &#160;&#160;&#160;addTreatment(treatment_: address) &lt;&lt;onlyRole&gt;&gt;</text>
<text text-anchor="start" x="1359.95" y="-1370.3" font-family="Times,serif" font-size="14.00"> &#160;&#160;&#160;removeTreatment(oldTreatment: address) &lt;&lt;onlyRole&gt;&gt;</text>
<text text-anchor="start" x="1359.95" y="-1353.5" font-family="Times,serif" font-size="14.00"> &#160;&#160;&#160;doctorRequestAccess(doctor_: address)</text>
<text text-anchor="start" x="1359.95" y="-1336.7" font-family="Times,serif" font-size="14.00"> &#160;&#160;&#160;acceptRequest(doctor_: address) &lt;&lt;onlyPatient&gt;&gt;</text>
<text text-anchor="start" x="1359.95" y="-1319.9" font-family="Times,serif" font-size="14.00"> &#160;&#160;&#160;revokeAccess(doctor_: address) &lt;&lt;onlyPatient&gt;&gt;</text>
<text text-anchor="start" x="1359.95" y="-1303.1" font-family="Times,serif" font-size="14.00">Public:</text>
<text text-anchor="start" x="1359.95" y="-1286.3" font-family="Times,serif" font-size="14.00"> &#160;&#160;&#160;&lt;&lt;modifier&gt;&gt; canWrite()</text>
<text text-anchor="start" x="1359.95" y="-1269.5" font-family="Times,serif" font-size="14.00"> &#160;&#160;&#160;&lt;&lt;modifier&gt;&gt; canRead()</text>
<text text-anchor="start" x="1359.95" y="-1252.7" font-family="Times,serif" font-size="14.00"> &#160;&#160;&#160;&lt;&lt;modifier&gt;&gt; onlyPatient()</text>
<text text-anchor="start" x="1359.95" y="-1235.9" font-family="Times,serif" font-size="14.00"> &#160;&#160;&#160;constructor()</text>
<text text-anchor="start" x="1359.95" y="-1219.1" font-family="Times,serif" font-size="14.00"> &#160;&#160;&#160;hasReadAccess()</text>
<text text-anchor="start" x="1359.95" y="-1202.3" font-family="Times,serif" font-size="14.00"> &#160;&#160;&#160;hasWriteAccess()</text>
<text text-anchor="start" x="1359.95" y="-1185.5" font-family="Times,serif" font-size="14.00"> &#160;&#160;&#160;removeUpdate(index: uint256) &lt;&lt;onlyPatient&gt;&gt;</text>
</g>
<!-- 1&#45;&gt;10 -->
<g id="edge6" class="edge">
<title>1&#45;&gt;10</title>
<path fill="none" stroke="black" stroke-dasharray="5,2" d="M1545.84,-159.11C1553.42,-170.58 1559.97,-182.79 1564.48,-195.4 1576.84,-229.99 1581.44,-337.62 1555.48,-1140.8 1555.2,-1149.45 1554.9,-1158.22 1554.57,-1167.06"/>
<polygon fill="black" stroke="black" points="1551.08,-1166.94 1554.2,-1177.07 1558.07,-1167.2 1551.08,-1166.94"/>
</g>
<!-- 12 -->
<g id="node13" class="node">
<title>12</title>
<polygon fill="#f2f2f2" stroke="black" points="2464.59,-1006.7 2464.59,-1106.7 2612.37,-1106.7 2612.37,-1006.7 2464.59,-1006.7"/>
<text text-anchor="middle" x="2538.48" y="-1090.1" font-family="Times,serif" font-size="14.00">&lt;&lt;Struct&gt;&gt;</text>
<text text-anchor="middle" x="2538.48" y="-1073.3" font-family="Times,serif" font-size="14.00">Dosage</text>
<text text-anchor="middle" x="2538.48" y="-1056.5" font-family="Times,serif" font-size="14.00">contracts/Treatment.sol</text>
<polyline fill="none" stroke="black" points="2464.59,-1048.3 2612.37,-1048.3 "/>
<text text-anchor="start" x="2472.59" y="-1031.7" font-family="Times,serif" font-size="14.00">strength: uint16</text>
<text text-anchor="start" x="2472.59" y="-1014.9" font-family="Times,serif" font-size="14.00">unit: bytes32</text>
</g>
<!-- 1&#45;&gt;12 -->
<g id="edge4" class="edge">
<title>1&#45;&gt;12</title>
<path fill="none" stroke="black" stroke-dasharray="5,2" d="M1773.74,-158.08C1776.66,-158.53 1779.58,-158.97 1782.48,-159.4 1827.38,-165.98 2567.11,-162.61 2598.48,-195.4 2639.97,-238.76 2622.04,-613.84 2570.48,-936.6 2567.3,-956.49 2562.14,-977.85 2556.87,-996.92"/>
<polygon fill="black" stroke="black" points="2553.47,-996.08 2554.12,-1006.65 2560.21,-997.98 2553.47,-996.08"/>
</g>
<!-- 14 -->
<g id="node15" class="node">
<title>14</title>
<polygon fill="#f2f2f2" stroke="black" points="1725.81,-973.1 1725.81,-1140.3 1875.15,-1140.3 1875.15,-973.1 1725.81,-973.1"/>
<text text-anchor="middle" x="1800.48" y="-1123.7" font-family="Times,serif" font-size="14.00">&lt;&lt;Struct&gt;&gt;</text>
<text text-anchor="middle" x="1800.48" y="-1106.9" font-family="Times,serif" font-size="14.00">Schedule</text>
<text text-anchor="middle" x="1800.48" y="-1090.1" font-family="Times,serif" font-size="14.00">contracts/Treatment.sol</text>
<polyline fill="none" stroke="black" points="1725.81,-1081.9 1875.15,-1081.9 "/>
<text text-anchor="start" x="1733.81" y="-1065.3" font-family="Times,serif" font-size="14.00">startDate: uint256</text>
<text text-anchor="start" x="1733.81" y="-1048.5" font-family="Times,serif" font-size="14.00">endDate: uint256</text>
<text text-anchor="start" x="1733.81" y="-1031.7" font-family="Times,serif" font-size="14.00">frequency: Frequency</text>
<text text-anchor="start" x="1733.81" y="-1014.9" font-family="Times,serif" font-size="14.00">interval: uint8</text>
<text text-anchor="start" x="1733.81" y="-998.1" font-family="Times,serif" font-size="14.00">daysOfWeek: bytes32[]</text>
<text text-anchor="start" x="1733.81" y="-981.3" font-family="Times,serif" font-size="14.00">timesOfDay: uint16[]</text>
</g>
<!-- 1&#45;&gt;14 -->
<g id="edge5" class="edge">
<title>1&#45;&gt;14</title>
<path fill="none" stroke="black" stroke-dasharray="5,2" d="M1571.12,-159.11C1581.2,-170.38 1590.33,-182.55 1597.48,-195.4 1602.56,-204.54 1727.87,-926.78 1731.48,-936.6 1734.82,-945.68 1738.82,-954.88 1743.21,-963.91"/>
<polygon fill="black" stroke="black" points="1740.1,-965.52 1747.7,-972.89 1746.35,-962.38 1740.1,-965.52"/>
</g>
<!-- 16 -->
<g id="node17" class="node">
<title>16</title>
<polygon fill="#f2f2f2" stroke="black" points="1649.97,-229.5 1649.97,-387.9 2588.99,-387.9 2588.99,-229.5 1649.97,-229.5"/>
<text text-anchor="middle" x="2119.48" y="-371.3" font-family="Times,serif" font-size="14.00">TreatmentFactory</text>
<text text-anchor="middle" x="2119.48" y="-354.5" font-family="Times,serif" font-size="14.00">contracts/TreatmentFactory.sol</text>
<polyline fill="none" stroke="black" points="1649.97,-346.3 2588.99,-346.3 "/>
<text text-anchor="start" x="1657.97" y="-329.7" font-family="Times,serif" font-size="14.00">Public:</text>
<text text-anchor="start" x="1657.97" y="-312.9" font-family="Times,serif" font-size="14.00"> &#160;&#160;treatmentImplementation: address</text>
<polyline fill="none" stroke="black" points="1649.97,-304.7 2588.99,-304.7 "/>
<text text-anchor="start" x="1657.97" y="-288.1" font-family="Times,serif" font-size="14.00">External:</text>
<text text-anchor="start" x="1657.97" y="-271.3" font-family="Times,serif" font-size="14.00"> &#160;&#160;&#160;createTreatment(doctor_: address, patient_: address, medicine_: string, form_: bytes32, dosage_: Dosage, schedule_: Schedule): (clone: address) &lt;&lt;onlyOwner&gt;&gt;</text>
<text text-anchor="start" x="1657.97" y="-254.5" font-family="Times,serif" font-size="14.00">Public:</text>
<text text-anchor="start" x="1657.97" y="-237.7" font-family="Times,serif" font-size="14.00"> &#160;&#160;&#160;constructor()</text>
</g>
<!-- 1&#45;&gt;16 -->
<g id="edge3" class="edge">
<title>1&#45;&gt;16</title>
<path fill="none" stroke="black" d="M1694.28,-158.98C1756.25,-180.65 1823.66,-204.23 1886.16,-226.09"/>
<polygon fill="black" stroke="black" points="1885.15,-229.45 1895.74,-229.44 1887.46,-222.84 1885.15,-229.45"/>
</g>
<!-- 2 -->
<g id="node3" class="node">
<title>2</title>
<polygon fill="#f2f2f2" stroke="black" points="275.91,-1006.7 275.91,-1106.7 405.05,-1106.7 405.05,-1006.7 275.91,-1006.7"/>
<text text-anchor="middle" x="340.48" y="-1090.1" font-family="Times,serif" font-size="14.00">&lt;&lt;Struct&gt;&gt;</text>
<text text-anchor="middle" x="340.48" y="-1073.3" font-family="Times,serif" font-size="14.00">DoctorStruct</text>
<text text-anchor="middle" x="340.48" y="-1056.5" font-family="Times,serif" font-size="14.00">contracts/Doctor.sol</text>
<polyline fill="none" stroke="black" points="275.91,-1048.3 405.05,-1048.3 "/>
<text text-anchor="start" x="283.91" y="-1031.7" font-family="Times,serif" font-size="14.00">name: bytes32</text>
<text text-anchor="start" x="283.91" y="-1014.9" font-family="Times,serif" font-size="14.00">affiliate: bytes32</text>
</g>
<!-- 4 -->
<g id="node5" class="node">
<title>4</title>
<polygon fill="#f2f2f2" stroke="black" points="423.51,-977.5 423.51,-1135.9 1025.45,-1135.9 1025.45,-977.5 423.51,-977.5"/>
<text text-anchor="middle" x="724.48" y="-1119.3" font-family="Times,serif" font-size="14.00">DoctorFactory</text>
<text text-anchor="middle" x="724.48" y="-1102.5" font-family="Times,serif" font-size="14.00">contracts/DoctorFactory.sol</text>
<polyline fill="none" stroke="black" points="423.51,-1094.3 1025.45,-1094.3 "/>
<text text-anchor="start" x="431.51" y="-1077.7" font-family="Times,serif" font-size="14.00">Public:</text>
<text text-anchor="start" x="431.51" y="-1060.9" font-family="Times,serif" font-size="14.00"> &#160;&#160;doctorImplementation: address</text>
<polyline fill="none" stroke="black" points="423.51,-1052.7 1025.45,-1052.7 "/>
<text text-anchor="start" x="431.51" y="-1036.1" font-family="Times,serif" font-size="14.00">External:</text>
<text text-anchor="start" x="431.51" y="-1019.3" font-family="Times,serif" font-size="14.00"> &#160;&#160;&#160;createDoctor(doctor_: address, name_: bytes32, affiliate_: bytes32): (clone: address) &lt;&lt;onlyOwner&gt;&gt;</text>
<text text-anchor="start" x="431.51" y="-1002.5" font-family="Times,serif" font-size="14.00">Public:</text>
<text text-anchor="start" x="431.51" y="-985.7" font-family="Times,serif" font-size="14.00"> &#160;&#160;&#160;constructor()</text>
</g>
<!-- 4&#45;&gt;3 -->
<g id="edge8" class="edge">
<title>4&#45;&gt;3</title>
<path fill="none" stroke="black" stroke-dasharray="5,2" d="M644.37,-1136.06C587.93,-1191.27 509.89,-1267.61 437.94,-1338"/>
<polygon fill="black" stroke="black" points="435.25,-1335.73 430.54,-1345.23 440.14,-1340.74 435.25,-1335.73"/>
</g>
<!-- 5 -->
<g id="node6" class="node">
<title>5</title>
<polygon fill="#f2f2f2" stroke="black" points="1791.31,-29.7 1791.31,-129.7 1919.65,-129.7 1919.65,-29.7 1791.31,-29.7"/>
<text text-anchor="middle" x="1855.48" y="-113.1" font-family="Times,serif" font-size="14.00">&lt;&lt;Struct&gt;&gt;</text>
<text text-anchor="middle" x="1855.48" y="-96.3" font-family="Times,serif" font-size="14.00">Bytes32Pair</text>
<text text-anchor="middle" x="1855.48" y="-79.5" font-family="Times,serif" font-size="14.00">contracts/Helper.sol</text>
<polyline fill="none" stroke="black" points="1791.31,-71.3 1919.65,-71.3 "/>
<text text-anchor="start" x="1799.31" y="-54.7" font-family="Times,serif" font-size="14.00">value1: bytes32</text>
<text text-anchor="start" x="1799.31" y="-37.9" font-family="Times,serif" font-size="14.00">value2: bytes32</text>
</g>
<!-- 6 -->
<g id="node7" class="node">
<title>6</title>
<polygon fill="#f2f2f2" stroke="black" points="1937.31,-21.3 1937.31,-138.1 2065.65,-138.1 2065.65,-21.3 1937.31,-21.3"/>
<text text-anchor="middle" x="2001.48" y="-121.5" font-family="Times,serif" font-size="14.00">&lt;&lt;Struct&gt;&gt;</text>
<text text-anchor="middle" x="2001.48" y="-104.7" font-family="Times,serif" font-size="14.00">BoolTriple</text>
<text text-anchor="middle" x="2001.48" y="-87.9" font-family="Times,serif" font-size="14.00">contracts/Helper.sol</text>
<polyline fill="none" stroke="black" points="1937.31,-79.7 2065.65,-79.7 "/>
<text text-anchor="start" x="1945.31" y="-63.1" font-family="Times,serif" font-size="14.00">value1: bool</text>
<text text-anchor="start" x="1945.31" y="-46.3" font-family="Times,serif" font-size="14.00">value2: bool</text>
<text text-anchor="start" x="1945.31" y="-29.5" font-family="Times,serif" font-size="14.00">value3: bool</text>
</g>
<!-- 7 -->
<g id="node8" class="node">
<title>7</title>
<polygon fill="#f2f2f2" stroke="black" points="2083.31,-29.7 2083.31,-129.7 2211.65,-129.7 2211.65,-29.7 2083.31,-29.7"/>
<text text-anchor="middle" x="2147.48" y="-113.1" font-family="Times,serif" font-size="14.00">&lt;&lt;Struct&gt;&gt;</text>
<text text-anchor="middle" x="2147.48" y="-96.3" font-family="Times,serif" font-size="14.00">SmallUintPair</text>
<text text-anchor="middle" x="2147.48" y="-79.5" font-family="Times,serif" font-size="14.00">contracts/Helper.sol</text>
<polyline fill="none" stroke="black" points="2083.31,-71.3 2211.65,-71.3 "/>
<text text-anchor="start" x="2091.31" y="-54.7" font-family="Times,serif" font-size="14.00">value1: uint16</text>
<text text-anchor="start" x="2091.31" y="-37.9" font-family="Times,serif" font-size="14.00">value2: uint16</text>
</g>
<!-- 8 -->
<g id="node9" class="node">
<title>8</title>
<polygon fill="#f2f2f2" stroke="black" points="2229.31,-29.7 2229.31,-129.7 2357.65,-129.7 2357.65,-29.7 2229.31,-29.7"/>
<text text-anchor="middle" x="2293.48" y="-113.1" font-family="Times,serif" font-size="14.00">&lt;&lt;Struct&gt;&gt;</text>
<text text-anchor="middle" x="2293.48" y="-96.3" font-family="Times,serif" font-size="14.00">FromAppOption</text>
<text text-anchor="middle" x="2293.48" y="-79.5" font-family="Times,serif" font-size="14.00">contracts/Helper.sol</text>
<polyline fill="none" stroke="black" points="2229.31,-71.3 2357.65,-71.3 "/>
<text text-anchor="start" x="2237.31" y="-54.7" font-family="Times,serif" font-size="14.00">fromApp: bool</text>
<text text-anchor="start" x="2237.31" y="-37.9" font-family="Times,serif" font-size="14.00">addr: address</text>
</g>
<!-- 9&#45;&gt;2 -->
<g id="edge12" class="edge">
<title>9&#45;&gt;2</title>
<path fill="none" stroke="black" stroke-dasharray="5,2" d="M805.53,-766.8C685.78,-813.93 533.53,-883.99 414.48,-972.6 404.11,-980.32 394.1,-989.69 384.97,-999.31"/>
<polygon fill="black" stroke="black" points="382.38,-996.96 378.18,-1006.69 387.53,-1001.7 382.38,-996.96"/>
</g>
<!-- 9&#45;&gt;3 -->
<g id="edge13" class="edge">
<title>9&#45;&gt;3</title>
<path fill="none" stroke="black" stroke-dasharray="5,2" d="M805.62,-712.79C632.59,-737.03 389.72,-801.51 266.48,-972.6 225.87,-1028.98 225.17,-1198.48 232.19,-1334.87"/>
<polygon fill="black" stroke="black" points="228.71,-1335.24 232.73,-1345.04 235.7,-1334.87 228.71,-1335.24"/>
</g>
<!-- 9&#45;&gt;4 -->
<g id="edge9" class="edge">
<title>9&#45;&gt;4</title>
<path fill="none" stroke="black" d="M869.59,-869.15C842.55,-903.91 815.2,-939.07 791.65,-969.35"/>
<polygon fill="black" stroke="black" points="788.8,-967.31 785.43,-977.35 794.33,-971.6 788.8,-967.31"/>
</g>
<!-- 9&#45;&gt;10 -->
<g id="edge11" class="edge">
<title>9&#45;&gt;10</title>
<path fill="none" stroke="black" stroke-dasharray="5,2" d="M1199.5,-746.91C1316.18,-786.85 1454.81,-856.35 1526.48,-972.6 1548.34,-1008.06 1556.38,-1083.09 1557.48,-1166.72"/>
<polygon fill="black" stroke="black" points="1553.98,-1166.99 1557.58,-1176.96 1560.98,-1166.93 1553.98,-1166.99"/>
</g>
<!-- 11 -->
<g id="node12" class="node">
<title>11</title>
<polygon fill="#f2f2f2" stroke="black" points="1043.84,-977.5 1043.84,-1135.9 1517.12,-1135.9 1517.12,-977.5 1043.84,-977.5"/>
<text text-anchor="middle" x="1280.48" y="-1119.3" font-family="Times,serif" font-size="14.00">PatientFactory</text>
<text text-anchor="middle" x="1280.48" y="-1102.5" font-family="Times,serif" font-size="14.00">contracts/PatientFactory.sol</text>
<polyline fill="none" stroke="black" points="1043.84,-1094.3 1517.12,-1094.3 "/>
<text text-anchor="start" x="1051.84" y="-1077.7" font-family="Times,serif" font-size="14.00">Public:</text>
<text text-anchor="start" x="1051.84" y="-1060.9" font-family="Times,serif" font-size="14.00"> &#160;&#160;patientImplementation: address</text>
<polyline fill="none" stroke="black" points="1043.84,-1052.7 1517.12,-1052.7 "/>
<text text-anchor="start" x="1051.84" y="-1036.1" font-family="Times,serif" font-size="14.00">External:</text>
<text text-anchor="start" x="1051.84" y="-1019.3" font-family="Times,serif" font-size="14.00"> &#160;&#160;&#160;createPatient(owner_: address, info_: string): (clone: address) &lt;&lt;onlyOwner&gt;&gt;</text>
<text text-anchor="start" x="1051.84" y="-1002.5" font-family="Times,serif" font-size="14.00">Public:</text>
<text text-anchor="start" x="1051.84" y="-985.7" font-family="Times,serif" font-size="14.00"> &#160;&#160;&#160;constructor()</text>
</g>
<!-- 9&#45;&gt;11 -->
<g id="edge10" class="edge">
<title>9&#45;&gt;11</title>
<path fill="none" stroke="black" d="M1135.37,-869.15C1162.41,-903.91 1189.76,-939.07 1213.31,-969.35"/>
<polygon fill="black" stroke="black" points="1210.63,-971.6 1219.53,-977.35 1216.16,-967.31 1210.63,-971.6"/>
</g>
<!-- 11&#45;&gt;10 -->
<g id="edge14" class="edge">
<title>11&#45;&gt;10</title>
<path fill="none" stroke="black" stroke-dasharray="5,2" d="M1323.3,-1136.06C1330.54,-1149.3 1338.44,-1163.75 1346.79,-1179.04"/>
<polygon fill="black" stroke="black" points="1343.9,-1181.04 1351.77,-1188.14 1350.04,-1177.69 1343.9,-1181.04"/>
</g>
<!-- 13 -->
<g id="node14" class="node">
<title>13</title>
<polygon fill="#f2f2f2" stroke="black" points="1736.59,-1466.9 1736.59,-1583.7 1884.37,-1583.7 1884.37,-1466.9 1736.59,-1466.9"/>
<text text-anchor="middle" x="1810.48" y="-1567.1" font-family="Times,serif" font-size="14.00">&lt;&lt;Enum&gt;&gt;</text>
<text text-anchor="middle" x="1810.48" y="-1550.3" font-family="Times,serif" font-size="14.00">Frequency</text>
<text text-anchor="middle" x="1810.48" y="-1533.5" font-family="Times,serif" font-size="14.00">contracts/Treatment.sol</text>
<polyline fill="none" stroke="black" points="1736.59,-1525.3 1884.37,-1525.3 "/>
<text text-anchor="start" x="1744.59" y="-1508.7" font-family="Times,serif" font-size="14.00">Interval: 0</text>
<text text-anchor="start" x="1744.59" y="-1491.9" font-family="Times,serif" font-size="14.00">DaysOfWeek: 1</text>
<text text-anchor="start" x="1744.59" y="-1475.1" font-family="Times,serif" font-size="14.00">AsNeeded: 2</text>
</g>
<!-- 14&#45;&gt;13 -->
<g id="edge15" class="edge">
<title>14&#45;&gt;13</title>
<path fill="none" stroke="black" stroke-dasharray="5,2" d="M1802.25,-1140.31C1804.18,-1230.39 1807.23,-1372.86 1809.03,-1456.59"/>
<polygon fill="black" stroke="black" points="1805.53,-1456.83 1809.25,-1466.76 1812.53,-1456.68 1805.53,-1456.83"/>
</g>
<!-- 15 -->
<g id="node16" class="node">
<title>15</title>
<polygon fill="#f2f2f2" stroke="black" points="1808.18,-458.5 1808.18,-936.1 2510.78,-936.1 2510.78,-458.5 1808.18,-458.5"/>
<text text-anchor="middle" x="2159.48" y="-919.5" font-family="Times,serif" font-size="14.00">Treatment</text>
<text text-anchor="middle" x="2159.48" y="-902.7" font-family="Times,serif" font-size="14.00">contracts/Treatment.sol</text>
<polyline fill="none" stroke="black" points="1808.18,-894.5 2510.78,-894.5 "/>
<text text-anchor="start" x="1816.18" y="-877.9" font-family="Times,serif" font-size="14.00">Private:</text>
<text text-anchor="start" x="1816.18" y="-861.1" font-family="Times,serif" font-size="14.00"> &#160;&#160;patient: address</text>
<text text-anchor="start" x="1816.18" y="-844.3" font-family="Times,serif" font-size="14.00"> &#160;&#160;form: bytes32</text>
<text text-anchor="start" x="1816.18" y="-827.5" font-family="Times,serif" font-size="14.00"> &#160;&#160;dosage: Dosage</text>
<text text-anchor="start" x="1816.18" y="-810.7" font-family="Times,serif" font-size="14.00"> &#160;&#160;schedule: Schedule</text>
<text text-anchor="start" x="1816.18" y="-793.9" font-family="Times,serif" font-size="14.00"> &#160;&#160;medicine: string</text>
<text text-anchor="start" x="1816.18" y="-777.1" font-family="Times,serif" font-size="14.00"> &#160;&#160;init: bool</text>
<text text-anchor="start" x="1816.18" y="-760.3" font-family="Times,serif" font-size="14.00">Public:</text>
<text text-anchor="start" x="1816.18" y="-743.5" font-family="Times,serif" font-size="14.00"> &#160;&#160;PATIENT_ROLE: bytes32</text>
<text text-anchor="start" x="1816.18" y="-726.7" font-family="Times,serif" font-size="14.00"> &#160;&#160;DOCTOR_ROLE: bytes32</text>
<polyline fill="none" stroke="black" points="1808.18,-718.5 2510.78,-718.5 "/>
<text text-anchor="start" x="1816.18" y="-701.9" font-family="Times,serif" font-size="14.00">Private:</text>
<text text-anchor="start" x="1816.18" y="-685.1" font-family="Times,serif" font-size="14.00"> &#160;&#160;&#160;hasReadAccess()</text>
<text text-anchor="start" x="1816.18" y="-668.3" font-family="Times,serif" font-size="14.00"> &#160;&#160;&#160;isComplete(): bool</text>
<text text-anchor="start" x="1816.18" y="-651.5" font-family="Times,serif" font-size="14.00">External:</text>
<text text-anchor="start" x="1816.18" y="-634.7" font-family="Times,serif" font-size="14.00"> &#160;&#160;&#160;initialize(doctor_: address, patient_: address, medicine_: string, form_: bytes32, dosage_: Dosage, schedule_: Schedule)</text>
<text text-anchor="start" x="1816.18" y="-617.9" font-family="Times,serif" font-size="14.00"> &#160;&#160;&#160;getPatient(): address &lt;&lt;canRead&gt;&gt;</text>
<text text-anchor="start" x="1816.18" y="-601.1" font-family="Times,serif" font-size="14.00"> &#160;&#160;&#160;getMedicine(): (medicine_: string, isComplete_: bool)</text>
<text text-anchor="start" x="1816.18" y="-584.3" font-family="Times,serif" font-size="14.00"> &#160;&#160;&#160;getTreatment(): (string, bytes32, Dosage, Schedule, bool) &lt;&lt;canRead&gt;&gt;</text>
<text text-anchor="start" x="1816.18" y="-567.5" font-family="Times,serif" font-size="14.00"> &#160;&#160;&#160;edit(medicine_: string) &lt;&lt;onlyRole&gt;&gt;</text>
<text text-anchor="start" x="1816.18" y="-550.7" font-family="Times,serif" font-size="14.00"> &#160;&#160;&#160;edit(form_: bytes32) &lt;&lt;onlyRole&gt;&gt;</text>
<text text-anchor="start" x="1816.18" y="-533.9" font-family="Times,serif" font-size="14.00"> &#160;&#160;&#160;edit(dosage_: Dosage) &lt;&lt;onlyRole&gt;&gt;</text>
<text text-anchor="start" x="1816.18" y="-517.1" font-family="Times,serif" font-size="14.00"> &#160;&#160;&#160;edit(schedule_: Schedule) &lt;&lt;onlyRole&gt;&gt;</text>
<text text-anchor="start" x="1816.18" y="-500.3" font-family="Times,serif" font-size="14.00">Public:</text>
<text text-anchor="start" x="1816.18" y="-483.5" font-family="Times,serif" font-size="14.00"> &#160;&#160;&#160;&lt;&lt;modifier&gt;&gt; canRead()</text>
<text text-anchor="start" x="1816.18" y="-466.7" font-family="Times,serif" font-size="14.00"> &#160;&#160;&#160;constructor()</text>
</g>
<!-- 15&#45;&gt;12 -->
<g id="edge16" class="edge">
<title>15&#45;&gt;12</title>
<path fill="none" stroke="black" d="M2411.75,-936.19C2436.4,-959.44 2459.45,-981.17 2478.95,-999.57"/>
<polygon fill="black" stroke="black" points="2476.57,-1002.13 2486.25,-1006.45 2481.38,-997.04 2476.57,-1002.13"/>
</g>
<!-- 15&#45;&gt;14 -->
<g id="edge17" class="edge">
<title>15&#45;&gt;14</title>
<path fill="none" stroke="black" d="M1920.52,-936.19C1907.27,-949.39 1894.5,-962.1 1882.56,-973.98"/>
<polygon fill="black" stroke="black" points="1879.85,-971.74 1875.24,-981.28 1884.79,-976.7 1879.85,-971.74"/>
</g>
<!-- 16&#45;&gt;12 -->
<g id="edge19" class="edge">
<title>16&#45;&gt;12</title>
<path fill="none" stroke="black" stroke-dasharray="5,2" d="M2442.86,-388.05C2472.52,-406.62 2499.04,-429.6 2519.48,-458 2637.33,-621.76 2587.2,-881.33 2556.22,-996.87"/>
<polygon fill="black" stroke="black" points="2552.82,-996.04 2553.56,-1006.6 2559.57,-997.88 2552.82,-996.04"/>
</g>
<!-- 16&#45;&gt;14 -->
<g id="edge20" class="edge">
<title>16&#45;&gt;14</title>
<path fill="none" stroke="black" stroke-dasharray="5,2" d="M1870.97,-387.92C1842.72,-406.59 1817.61,-429.62 1799.48,-458 1700.98,-612.22 1738.66,-837.59 1771.64,-962.91"/>
<polygon fill="black" stroke="black" points="1768.34,-964.11 1774.31,-972.87 1775.1,-962.3 1768.34,-964.11"/>
</g>
<!-- 16&#45;&gt;15 -->
<g id="edge18" class="edge">
<title>16&#45;&gt;15</title>
<path fill="none" stroke="black" stroke-dasharray="5,2" d="M2127.57,-387.93C2129.48,-406.3 2131.6,-426.85 2133.83,-448.38"/>
<polygon fill="black" stroke="black" points="2130.35,-448.75 2134.86,-458.34 2137.31,-448.03 2130.35,-448.75"/>
</g>
</g>
</svg>
