<?xml version="1.0" encoding="UTF-8" standalone="no"?>
<!DOCTYPE svg PUBLIC "-//W3C//DTD SVG 1.1//EN"
 "http://www.w3.org/Graphics/SVG/1.1/DTD/svg11.dtd">
<!-- Generated by graphviz version 5.0.0 (20220707.1540)
 -->
<!-- Title: UmlClassDiagram Pages: 1 -->
<svg width="3667pt" height="2204pt"
 viewBox="0.00 0.00 3667.49 2203.60" xmlns="http://www.w3.org/2000/svg" xmlns:xlink="http://www.w3.org/1999/xlink">
<g id="graph0" class="graph" transform="scale(1 1) rotate(0) translate(4 2199.6)">
<title>UmlClassDiagram</title>
<polygon fill="white" stroke="transparent" points="-4,4 -4,-2199.6 3663.49,-2199.6 3663.49,4 -4,4"/>
<!-- 0 -->
<g id="node1" class="node">
<title>0</title>
<polygon fill="#f2f2f2" stroke="black" points="1812.35,-195.9 1812.35,-438.3 2520.07,-438.3 2520.07,-195.9 1812.35,-195.9"/>
<text text-anchor="middle" x="2166.21" y="-421.7" font-family="Times,serif" font-size="14.00">&lt;&lt;Abstract&gt;&gt;</text>
<text text-anchor="middle" x="2166.21" y="-404.9" font-family="Times,serif" font-size="14.00">Application</text>
<text text-anchor="middle" x="2166.21" y="-388.1" font-family="Times,serif" font-size="14.00">contracts/Application.sol</text>
<polyline fill="none" stroke="black" points="1812.35,-379.9 2520.07,-379.9 "/>
<text text-anchor="start" x="1820.35" y="-363.3" font-family="Times,serif" font-size="14.00">Private:</text>
<text text-anchor="start" x="1820.35" y="-346.5" font-family="Times,serif" font-size="14.00"> &#160;&#160;name: bytes32</text>
<text text-anchor="start" x="1820.35" y="-329.7" font-family="Times,serif" font-size="14.00">Internal:</text>
<text text-anchor="start" x="1820.35" y="-312.9" font-family="Times,serif" font-size="14.00"> &#160;&#160;manager: Manager</text>
<polyline fill="none" stroke="black" points="1812.35,-304.7 2520.07,-304.7 "/>
<text text-anchor="start" x="1820.35" y="-288.1" font-family="Times,serif" font-size="14.00">External:</text>
<text text-anchor="start" x="1820.35" y="-271.3" font-family="Times,serif" font-size="14.00"> &#160;&#160;&#160;addDoctor(owner_: address, name_: bytes32, affiliate_: bytes32)</text>
<text text-anchor="start" x="1820.35" y="-254.5" font-family="Times,serif" font-size="14.00"> &#160;&#160;&#160;addPatient(nameGender_: Bytes32Pair, dob_: uint256, physique_: SmallUintPair, allergy_: string[], habits_: BoolTriple)</text>
<text text-anchor="start" x="1820.35" y="-237.7" font-family="Times,serif" font-size="14.00">Public:</text>
<text text-anchor="start" x="1820.35" y="-220.9" font-family="Times,serif" font-size="14.00"> &#160;&#160;&#160;constructor(manager_: address, name_: bytes32)</text>
<text text-anchor="start" x="1820.35" y="-204.1" font-family="Times,serif" font-size="14.00"> &#160;&#160;&#160;getName(): (name_: bytes32)</text>
</g>
<!-- 5 -->
<g id="node6" class="node">
<title>5</title>
<polygon fill="#f2f2f2" stroke="black" points="572.04,-2086.7 572.04,-2186.7 700.38,-2186.7 700.38,-2086.7 572.04,-2086.7"/>
<text text-anchor="middle" x="636.21" y="-2170.1" font-family="Times,serif" font-size="14.00">&lt;&lt;Struct&gt;&gt;</text>
<text text-anchor="middle" x="636.21" y="-2153.3" font-family="Times,serif" font-size="14.00">Bytes32Pair</text>
<text text-anchor="middle" x="636.21" y="-2136.5" font-family="Times,serif" font-size="14.00">contracts/Helper.sol</text>
<polyline fill="none" stroke="black" points="572.04,-2128.3 700.38,-2128.3 "/>
<text text-anchor="start" x="580.04" y="-2111.7" font-family="Times,serif" font-size="14.00">value1: bytes32</text>
<text text-anchor="start" x="580.04" y="-2094.9" font-family="Times,serif" font-size="14.00">value2: bytes32</text>
</g>
<!-- 0&#45;&gt;5 -->
<g id="edge2" class="edge">
<title>0&#45;&gt;5</title>
<path fill="none" stroke="black" stroke-dasharray="5,2" d="M1812.08,-327.13C1570.08,-342.27 1245.2,-380.45 973.21,-474.8 550.94,-621.28 365.68,-623.36 109.21,-989.4 15.71,-1122.85 -60.92,-1887.12 70.21,-2041.8 132.42,-2115.18 423,-2131.28 561.9,-2134.77"/>
<polygon fill="black" stroke="black" points="561.96,-2138.27 572.03,-2135.01 562.12,-2131.27 561.96,-2138.27"/>
</g>
<!-- 6 -->
<g id="node7" class="node">
<title>6</title>
<polygon fill="#f2f2f2" stroke="black" points="2427.04,-2078.3 2427.04,-2195.1 2555.38,-2195.1 2555.38,-2078.3 2427.04,-2078.3"/>
<text text-anchor="middle" x="2491.21" y="-2178.5" font-family="Times,serif" font-size="14.00">&lt;&lt;Struct&gt;&gt;</text>
<text text-anchor="middle" x="2491.21" y="-2161.7" font-family="Times,serif" font-size="14.00">BoolTriple</text>
<text text-anchor="middle" x="2491.21" y="-2144.9" font-family="Times,serif" font-size="14.00">contracts/Helper.sol</text>
<polyline fill="none" stroke="black" points="2427.04,-2136.7 2555.38,-2136.7 "/>
<text text-anchor="start" x="2435.04" y="-2120.1" font-family="Times,serif" font-size="14.00">value1: bool</text>
<text text-anchor="start" x="2435.04" y="-2103.3" font-family="Times,serif" font-size="14.00">value2: bool</text>
<text text-anchor="start" x="2435.04" y="-2086.5" font-family="Times,serif" font-size="14.00">value3: bool</text>
</g>
<!-- 0&#45;&gt;6 -->
<g id="edge4" class="edge">
<title>0&#45;&gt;6</title>
<path fill="none" stroke="black" stroke-dasharray="5,2" d="M2315.81,-438.48C2325.59,-450.06 2334.57,-462.21 2342.21,-474.8 2513.24,-756.49 2483.45,-866.58 2524.21,-1193.6 2570.83,-1567.68 2587.61,-1670.19 2524.21,-2041.8 2522.71,-2050.62 2520.46,-2059.71 2517.83,-2068.61"/>
<polygon fill="black" stroke="black" points="2514.49,-2067.57 2514.85,-2078.16 2521.17,-2069.65 2514.49,-2067.57"/>
</g>
<!-- 7 -->
<g id="node8" class="node">
<title>7</title>
<polygon fill="#f2f2f2" stroke="black" points="2010.04,-2086.7 2010.04,-2186.7 2138.38,-2186.7 2138.38,-2086.7 2010.04,-2086.7"/>
<text text-anchor="middle" x="2074.21" y="-2170.1" font-family="Times,serif" font-size="14.00">&lt;&lt;Struct&gt;&gt;</text>
<text text-anchor="middle" x="2074.21" y="-2153.3" font-family="Times,serif" font-size="14.00">SmallUintPair</text>
<text text-anchor="middle" x="2074.21" y="-2136.5" font-family="Times,serif" font-size="14.00">contracts/Helper.sol</text>
<polyline fill="none" stroke="black" points="2010.04,-2128.3 2138.38,-2128.3 "/>
<text text-anchor="start" x="2018.04" y="-2111.7" font-family="Times,serif" font-size="14.00">value1: uint16</text>
<text text-anchor="start" x="2018.04" y="-2094.9" font-family="Times,serif" font-size="14.00">value2: uint16</text>
</g>
<!-- 0&#45;&gt;7 -->
<g id="edge3" class="edge">
<title>0&#45;&gt;7</title>
<path fill="none" stroke="black" stroke-dasharray="5,2" d="M2223.77,-438.36C2284.17,-570.31 2376.68,-789.94 2423.21,-989.4 2500.31,-1319.87 2511.86,-1952.15 2442.21,-2041.8 2406.56,-2087.69 2245.55,-2114.9 2148.7,-2127.4"/>
<polygon fill="black" stroke="black" points="2148.15,-2123.94 2138.67,-2128.67 2149.03,-2130.89 2148.15,-2123.94"/>
</g>
<!-- 8 -->
<g id="node9" class="node">
<title>8</title>
<polygon fill="#f2f2f2" stroke="black" points="926.04,-1567.7 926.04,-1667.7 1054.38,-1667.7 1054.38,-1567.7 926.04,-1567.7"/>
<text text-anchor="middle" x="990.21" y="-1651.1" font-family="Times,serif" font-size="14.00">&lt;&lt;Struct&gt;&gt;</text>
<text text-anchor="middle" x="990.21" y="-1634.3" font-family="Times,serif" font-size="14.00">FromAppOption</text>
<text text-anchor="middle" x="990.21" y="-1617.5" font-family="Times,serif" font-size="14.00">contracts/Helper.sol</text>
<polyline fill="none" stroke="black" points="926.04,-1609.3 1054.38,-1609.3 "/>
<text text-anchor="start" x="934.04" y="-1592.7" font-family="Times,serif" font-size="14.00">fromApp: bool</text>
<text text-anchor="start" x="934.04" y="-1575.9" font-family="Times,serif" font-size="14.00">addr: address</text>
</g>
<!-- 0&#45;&gt;8 -->
<g id="edge5" class="edge">
<title>0&#45;&gt;8</title>
<path fill="none" stroke="black" stroke-dasharray="5,2" d="M1812.33,-334.88C1563.24,-353.65 1257.57,-393 1160.21,-474.8 920.35,-676.32 983.5,-844.33 985.21,-1157.6 985.99,-1301.17 988.15,-1469.98 989.36,-1557.44"/>
<polygon fill="black" stroke="black" points="985.86,-1557.49 989.5,-1567.44 992.86,-1557.4 985.86,-1557.49"/>
</g>
<!-- 9 -->
<g id="node10" class="node">
<title>9</title>
<polygon fill="#f2f2f2" stroke="black" points="1169.09,-534.1 1169.09,-894.1 2027.33,-894.1 2027.33,-534.1 1169.09,-534.1"/>
<text text-anchor="middle" x="1598.21" y="-877.5" font-family="Times,serif" font-size="14.00">Manager</text>
<text text-anchor="middle" x="1598.21" y="-860.7" font-family="Times,serif" font-size="14.00">contracts/Manager.sol</text>
<polyline fill="none" stroke="black" points="1169.09,-852.5 2027.33,-852.5 "/>
<text text-anchor="start" x="1177.09" y="-835.9" font-family="Times,serif" font-size="14.00">Private:</text>
<text text-anchor="start" x="1177.09" y="-819.1" font-family="Times,serif" font-size="14.00"> &#160;&#160;doctors: mapping(address=&gt;address)</text>
<text text-anchor="start" x="1177.09" y="-802.3" font-family="Times,serif" font-size="14.00"> &#160;&#160;patients: mapping(address=&gt;address)</text>
<text text-anchor="start" x="1177.09" y="-785.5" font-family="Times,serif" font-size="14.00"> &#160;&#160;doctorFactory: DoctorFactory</text>
<text text-anchor="start" x="1177.09" y="-768.7" font-family="Times,serif" font-size="14.00"> &#160;&#160;patientFactory: PatientFactory</text>
<text text-anchor="start" x="1177.09" y="-751.9" font-family="Times,serif" font-size="14.00">Public:</text>
<text text-anchor="start" x="1177.09" y="-735.1" font-family="Times,serif" font-size="14.00"> &#160;&#160;ADMINISTRATOR_ROLE: bytes32</text>
<text text-anchor="start" x="1177.09" y="-718.3" font-family="Times,serif" font-size="14.00"> &#160;&#160;APPLICATION_ROLE: bytes32</text>
<polyline fill="none" stroke="black" points="1169.09,-710.1 2027.33,-710.1 "/>
<text text-anchor="start" x="1177.09" y="-693.5" font-family="Times,serif" font-size="14.00">External:</text>
<text text-anchor="start" x="1177.09" y="-676.7" font-family="Times,serif" font-size="14.00"> &#160;&#160;&#160;addPatient(nameGender_: Bytes32Pair, dob_: uint256, physique_: SmallUintPair, allergy_: string[], habits_: BoolTriple, option_: FromAppOption)</text>
<text text-anchor="start" x="1177.09" y="-659.9" font-family="Times,serif" font-size="14.00"> &#160;&#160;&#160;doctorRequest(patient_: address)</text>
<text text-anchor="start" x="1177.09" y="-643.1" font-family="Times,serif" font-size="14.00"> &#160;&#160;&#160;getDoctorInfo(doctors_: address[]): (docInfo: DoctorStruct[])</text>
<text text-anchor="start" x="1177.09" y="-626.3" font-family="Times,serif" font-size="14.00"> &#160;&#160;&#160;applicationRequest(patient_: address)</text>
<text text-anchor="start" x="1177.09" y="-609.5" font-family="Times,serif" font-size="14.00">Public:</text>
<text text-anchor="start" x="1177.09" y="-592.7" font-family="Times,serif" font-size="14.00"> &#160;&#160;&#160;constructor()</text>
<text text-anchor="start" x="1177.09" y="-575.9" font-family="Times,serif" font-size="14.00"> &#160;&#160;&#160;getPatient(owner_: address): (patient: address)</text>
<text text-anchor="start" x="1177.09" y="-559.1" font-family="Times,serif" font-size="14.00"> &#160;&#160;&#160;getDoctor(owner_: address): (doctor: address)</text>
<text text-anchor="start" x="1177.09" y="-542.3" font-family="Times,serif" font-size="14.00"> &#160;&#160;&#160;addDoctor(owner_: address, name_: bytes32, affiliate_: bytes32, fromApp_: bool)</text>
</g>
<!-- 0&#45;&gt;9 -->
<g id="edge1" class="edge">
<title>0&#45;&gt;9</title>
<path fill="none" stroke="black" d="M1993.09,-438.49C1952.32,-466.84 1907.93,-497.71 1864.12,-528.18"/>
<polygon fill="black" stroke="black" points="1861.87,-525.48 1855.65,-534.07 1865.86,-531.23 1861.87,-525.48"/>
</g>
<!-- 1 -->
<g id="node2" class="node">
<title>1</title>
<polygon fill="#f2f2f2" stroke="black" points="2054.32,-0.5 2054.32,-158.9 2660.1,-158.9 2660.1,-0.5 2054.32,-0.5"/>
<text text-anchor="middle" x="2357.21" y="-142.3" font-family="Times,serif" font-size="14.00">Chaindoser</text>
<text text-anchor="middle" x="2357.21" y="-125.5" font-family="Times,serif" font-size="14.00">contracts/Chaindoser.sol</text>
<polyline fill="none" stroke="black" points="2054.32,-117.3 2660.1,-117.3 "/>
<text text-anchor="start" x="2062.32" y="-100.7" font-family="Times,serif" font-size="14.00">Private:</text>
<text text-anchor="start" x="2062.32" y="-83.9" font-family="Times,serif" font-size="14.00"> &#160;&#160;treatmentFactory: TreatmentFactory</text>
<polyline fill="none" stroke="black" points="2054.32,-75.7 2660.1,-75.7 "/>
<text text-anchor="start" x="2062.32" y="-59.1" font-family="Times,serif" font-size="14.00">External:</text>
<text text-anchor="start" x="2062.32" y="-42.3" font-family="Times,serif" font-size="14.00"> &#160;&#160;&#160;prescribe(patient_: address, medicine_: string, form_: bytes32, dosage_: Dosage, schedule_: Schedule)</text>
<text text-anchor="start" x="2062.32" y="-25.5" font-family="Times,serif" font-size="14.00">Public:</text>
<text text-anchor="start" x="2062.32" y="-8.7" font-family="Times,serif" font-size="14.00"> &#160;&#160;&#160;constructor(manager_: address, name_: bytes32)</text>
</g>
<!-- 1&#45;&gt;0 -->
<g id="edge6" class="edge">
<title>1&#45;&gt;0</title>
<path fill="none" stroke="black" d="M2293.61,-159.08C2290.1,-163.41 2286.53,-167.81 2282.92,-172.26"/>
<polygon fill="none" stroke="black" points="2274.71,-165.71 2263.97,-195.62 2291.02,-178.94 2274.71,-165.71"/>
</g>
<!-- 3 -->
<g id="node4" class="node">
<title>3</title>
<polygon fill="#f2f2f2" stroke="black" points="152.94,-1437.7 152.94,-1797.7 731.48,-1797.7 731.48,-1437.7 152.94,-1437.7"/>
<text text-anchor="middle" x="442.21" y="-1781.1" font-family="Times,serif" font-size="14.00">Doctor</text>
<text text-anchor="middle" x="442.21" y="-1764.3" font-family="Times,serif" font-size="14.00">contracts/Doctor.sol</text>
<polyline fill="none" stroke="black" points="152.94,-1756.1 731.48,-1756.1 "/>
<text text-anchor="start" x="160.94" y="-1739.5" font-family="Times,serif" font-size="14.00">Private:</text>
<text text-anchor="start" x="160.94" y="-1722.7" font-family="Times,serif" font-size="14.00"> &#160;&#160;name: bytes32</text>
<text text-anchor="start" x="160.94" y="-1705.9" font-family="Times,serif" font-size="14.00"> &#160;&#160;affiliate: bytes32</text>
<text text-anchor="start" x="160.94" y="-1689.1" font-family="Times,serif" font-size="14.00"> &#160;&#160;treatments: address[]</text>
<text text-anchor="start" x="160.94" y="-1672.3" font-family="Times,serif" font-size="14.00"> &#160;&#160;init: bool</text>
<text text-anchor="start" x="160.94" y="-1655.5" font-family="Times,serif" font-size="14.00">Public:</text>
<text text-anchor="start" x="160.94" y="-1638.7" font-family="Times,serif" font-size="14.00"> &#160;&#160;DOCTOR_ROLE: bytes32</text>
<text text-anchor="start" x="160.94" y="-1621.9" font-family="Times,serif" font-size="14.00"> &#160;&#160;MANAGER_ROLE: bytes32</text>
<polyline fill="none" stroke="black" points="152.94,-1613.7 731.48,-1613.7 "/>
<text text-anchor="start" x="160.94" y="-1597.1" font-family="Times,serif" font-size="14.00">Private:</text>
<text text-anchor="start" x="160.94" y="-1580.3" font-family="Times,serif" font-size="14.00"> &#160;&#160;&#160;hasWriteAccess()</text>
<text text-anchor="start" x="160.94" y="-1563.5" font-family="Times,serif" font-size="14.00">External:</text>
<text text-anchor="start" x="160.94" y="-1546.7" font-family="Times,serif" font-size="14.00"> &#160;&#160;&#160;initialize(owner_: address, app_: address, manager_: address, name_: bytes32, affiliate_: bytes32)</text>
<text text-anchor="start" x="160.94" y="-1529.9" font-family="Times,serif" font-size="14.00"> &#160;&#160;&#160;getInfo(): (name_: bytes32, affiliate_: bytes32)</text>
<text text-anchor="start" x="160.94" y="-1513.1" font-family="Times,serif" font-size="14.00"> &#160;&#160;&#160;addTreatment(treatment_: address) &lt;&lt;onlyRole&gt;&gt;</text>
<text text-anchor="start" x="160.94" y="-1496.3" font-family="Times,serif" font-size="14.00"> &#160;&#160;&#160;getTreatments(): address[] &lt;&lt;onlyRole&gt;&gt;</text>
<text text-anchor="start" x="160.94" y="-1479.5" font-family="Times,serif" font-size="14.00">Public:</text>
<text text-anchor="start" x="160.94" y="-1462.7" font-family="Times,serif" font-size="14.00"> &#160;&#160;&#160;&lt;&lt;modifier&gt;&gt; canWrite()</text>
<text text-anchor="start" x="160.94" y="-1445.9" font-family="Times,serif" font-size="14.00"> &#160;&#160;&#160;constructor()</text>
</g>
<!-- 1&#45;&gt;3 -->
<g id="edge11" class="edge">
<title>1&#45;&gt;3</title>
<path fill="none" stroke="black" stroke-dasharray="5,2" d="M2054.18,-94.72C1543.3,-137.23 529.43,-307.76 152.21,-989.4 72.54,-1133.36 161.44,-1303.08 261.17,-1429.66"/>
<polygon fill="black" stroke="black" points="258.48,-1431.91 267.44,-1437.56 263.96,-1427.55 258.48,-1431.91"/>
</g>
<!-- 10 -->
<g id="node11" class="node">
<title>10</title>
<polygon fill="#f2f2f2" stroke="black" points="1297.26,-1194.1 1297.26,-2041.3 2387.16,-2041.3 2387.16,-1194.1 1297.26,-1194.1"/>
<text text-anchor="middle" x="1842.21" y="-2024.7" font-family="Times,serif" font-size="14.00">Patient</text>
<text text-anchor="middle" x="1842.21" y="-2007.9" font-family="Times,serif" font-size="14.00">contracts/Patient.sol</text>
<polyline fill="none" stroke="black" points="1297.26,-1999.7 2387.16,-1999.7 "/>
<text text-anchor="start" x="1305.26" y="-1983.1" font-family="Times,serif" font-size="14.00">Private:</text>
<text text-anchor="start" x="1305.26" y="-1966.3" font-family="Times,serif" font-size="14.00"> &#160;&#160;name: bytes32</text>
<text text-anchor="start" x="1305.26" y="-1949.5" font-family="Times,serif" font-size="14.00"> &#160;&#160;gender: bytes32</text>
<text text-anchor="start" x="1305.26" y="-1932.7" font-family="Times,serif" font-size="14.00"> &#160;&#160;dob: uint256</text>
<text text-anchor="start" x="1305.26" y="-1915.9" font-family="Times,serif" font-size="14.00"> &#160;&#160;height: uint16</text>
<text text-anchor="start" x="1305.26" y="-1899.1" font-family="Times,serif" font-size="14.00"> &#160;&#160;weight: uint16</text>
<text text-anchor="start" x="1305.26" y="-1882.3" font-family="Times,serif" font-size="14.00"> &#160;&#160;alcohol: bool</text>
<text text-anchor="start" x="1305.26" y="-1865.5" font-family="Times,serif" font-size="14.00"> &#160;&#160;smoke: bool</text>
<text text-anchor="start" x="1305.26" y="-1848.7" font-family="Times,serif" font-size="14.00"> &#160;&#160;cannabis: bool</text>
<text text-anchor="start" x="1305.26" y="-1831.9" font-family="Times,serif" font-size="14.00"> &#160;&#160;init: bool</text>
<text text-anchor="start" x="1305.26" y="-1815.1" font-family="Times,serif" font-size="14.00"> &#160;&#160;allergy: string[]</text>
<text text-anchor="start" x="1305.26" y="-1798.3" font-family="Times,serif" font-size="14.00"> &#160;&#160;treatments: address[]</text>
<text text-anchor="start" x="1305.26" y="-1781.5" font-family="Times,serif" font-size="14.00"> &#160;&#160;requests: address[]</text>
<text text-anchor="start" x="1305.26" y="-1764.7" font-family="Times,serif" font-size="14.00"> &#160;&#160;doctorQueue: mapping(address=&gt;bool)</text>
<text text-anchor="start" x="1305.26" y="-1747.9" font-family="Times,serif" font-size="14.00"> &#160;&#160;appQueue: mapping(address=&gt;bool)</text>
<text text-anchor="start" x="1305.26" y="-1731.1" font-family="Times,serif" font-size="14.00">Public:</text>
<text text-anchor="start" x="1305.26" y="-1714.3" font-family="Times,serif" font-size="14.00"> &#160;&#160;PATIENT_ROLE: bytes32</text>
<text text-anchor="start" x="1305.26" y="-1697.5" font-family="Times,serif" font-size="14.00"> &#160;&#160;MANAGER_ROLE: bytes32</text>
<text text-anchor="start" x="1305.26" y="-1680.7" font-family="Times,serif" font-size="14.00"> &#160;&#160;APPLICATION_ROLE: bytes32</text>
<text text-anchor="start" x="1305.26" y="-1663.9" font-family="Times,serif" font-size="14.00"> &#160;&#160;DOCTOR_ROLE: bytes32</text>
<polyline fill="none" stroke="black" points="1297.26,-1655.7 2387.16,-1655.7 "/>
<text text-anchor="start" x="1305.26" y="-1639.1" font-family="Times,serif" font-size="14.00">Private:</text>
<text text-anchor="start" x="1305.26" y="-1622.3" font-family="Times,serif" font-size="14.00"> &#160;&#160;&#160;isPatient()</text>
<text text-anchor="start" x="1305.26" y="-1605.5" font-family="Times,serif" font-size="14.00"> &#160;&#160;&#160;findTreatment(treatment: address): (index: uint256)</text>
<text text-anchor="start" x="1305.26" y="-1588.7" font-family="Times,serif" font-size="14.00">External:</text>
<text text-anchor="start" x="1305.26" y="-1571.9" font-family="Times,serif" font-size="14.00"> &#160;&#160;&#160;checkDoctor(user_: address): bool &lt;&lt;canWrite&gt;&gt;</text>
<text text-anchor="start" x="1305.26" y="-1555.1" font-family="Times,serif" font-size="14.00"> &#160;&#160;&#160;initialize(manager_: address, owner_: address, app_: address, nameGender_: Bytes32Pair, dob_: uint256, physique_: SmallUintPair, allergy_: string[], alcoholSmokeCannabis_: BoolTriple)</text>
<text text-anchor="start" x="1305.26" y="-1538.3" font-family="Times,serif" font-size="14.00"> &#160;&#160;&#160;getInfo(): (Bytes32Pair, uint256, SmallUintPair, string[], BoolTriple, address[], address[]) &lt;&lt;canRead&gt;&gt;</text>
<text text-anchor="start" x="1305.26" y="-1521.5" font-family="Times,serif" font-size="14.00"> &#160;&#160;&#160;setName(name_: bytes32) &lt;&lt;onlyPatient&gt;&gt;</text>
<text text-anchor="start" x="1305.26" y="-1504.7" font-family="Times,serif" font-size="14.00"> &#160;&#160;&#160;setGender(gender_: bytes32) &lt;&lt;onlyPatient&gt;&gt;</text>
<text text-anchor="start" x="1305.26" y="-1487.9" font-family="Times,serif" font-size="14.00"> &#160;&#160;&#160;setDob(dob_: uint256) &lt;&lt;onlyPatient&gt;&gt;</text>
<text text-anchor="start" x="1305.26" y="-1471.1" font-family="Times,serif" font-size="14.00"> &#160;&#160;&#160;setPhysique(physique_: SmallUintPair) &lt;&lt;canWrite&gt;&gt;</text>
<text text-anchor="start" x="1305.26" y="-1454.3" font-family="Times,serif" font-size="14.00"> &#160;&#160;&#160;setAllergy(allergy_: string[]) &lt;&lt;canWrite&gt;&gt;</text>
<text text-anchor="start" x="1305.26" y="-1437.5" font-family="Times,serif" font-size="14.00"> &#160;&#160;&#160;setHabits(habits_: BoolTriple) &lt;&lt;canWrite&gt;&gt;</text>
<text text-anchor="start" x="1305.26" y="-1420.7" font-family="Times,serif" font-size="14.00"> &#160;&#160;&#160;addTreatment(treatment_: address) &lt;&lt;onlyRole&gt;&gt;</text>
<text text-anchor="start" x="1305.26" y="-1403.9" font-family="Times,serif" font-size="14.00"> &#160;&#160;&#160;removeTreatment(oldTreatment: address) &lt;&lt;canWrite&gt;&gt;</text>
<text text-anchor="start" x="1305.26" y="-1387.1" font-family="Times,serif" font-size="14.00"> &#160;&#160;&#160;doctorRequestAccess(doctor_: address)</text>
<text text-anchor="start" x="1305.26" y="-1370.3" font-family="Times,serif" font-size="14.00"> &#160;&#160;&#160;appRequestAccess(app_: address)</text>
<text text-anchor="start" x="1305.26" y="-1353.5" font-family="Times,serif" font-size="14.00"> &#160;&#160;&#160;getRequestQueue(): (queue: address[]) &lt;&lt;onlyPatient&gt;&gt;</text>
<text text-anchor="start" x="1305.26" y="-1336.7" font-family="Times,serif" font-size="14.00"> &#160;&#160;&#160;acceptRequest(doctor_: address) &lt;&lt;onlyPatient&gt;&gt;</text>
<text text-anchor="start" x="1305.26" y="-1319.9" font-family="Times,serif" font-size="14.00"> &#160;&#160;&#160;revokeAccess(doctor_: address) &lt;&lt;onlyPatient&gt;&gt;</text>
<text text-anchor="start" x="1305.26" y="-1303.1" font-family="Times,serif" font-size="14.00">Public:</text>
<text text-anchor="start" x="1305.26" y="-1286.3" font-family="Times,serif" font-size="14.00"> &#160;&#160;&#160;&lt;&lt;modifier&gt;&gt; canWrite()</text>
<text text-anchor="start" x="1305.26" y="-1269.5" font-family="Times,serif" font-size="14.00"> &#160;&#160;&#160;&lt;&lt;modifier&gt;&gt; canRead()</text>
<text text-anchor="start" x="1305.26" y="-1252.7" font-family="Times,serif" font-size="14.00"> &#160;&#160;&#160;&lt;&lt;modifier&gt;&gt; onlyPatient()</text>
<text text-anchor="start" x="1305.26" y="-1235.9" font-family="Times,serif" font-size="14.00"> &#160;&#160;&#160;constructor()</text>
<text text-anchor="start" x="1305.26" y="-1219.1" font-family="Times,serif" font-size="14.00"> &#160;&#160;&#160;hasReadAccess()</text>
<text text-anchor="start" x="1305.26" y="-1202.3" font-family="Times,serif" font-size="14.00"> &#160;&#160;&#160;hasWriteAccess()</text>
</g>
<!-- 1&#45;&gt;10 -->
<g id="edge10" class="edge">
<title>1&#45;&gt;10</title>
<path fill="none" stroke="black" stroke-dasharray="5,2" d="M2501.55,-158.9C2512.47,-169.81 2522.01,-181.95 2529.21,-195.4 2586.85,-303.11 2462.33,-1036.77 2391.21,-1157.6 2385.66,-1167.03 2379.84,-1176.35 2373.78,-1185.56"/>
<polygon fill="black" stroke="black" points="2370.8,-1183.73 2368.15,-1193.99 2376.62,-1187.62 2370.8,-1183.73"/>
</g>
<!-- 12 -->
<g id="node13" class="node">
<title>12</title>
<polygon fill="#f2f2f2" stroke="black" points="2631.32,-1023.5 2631.32,-1123.5 2779.1,-1123.5 2779.1,-1023.5 2631.32,-1023.5"/>
<text text-anchor="middle" x="2705.21" y="-1106.9" font-family="Times,serif" font-size="14.00">&lt;&lt;Struct&gt;&gt;</text>
<text text-anchor="middle" x="2705.21" y="-1090.1" font-family="Times,serif" font-size="14.00">Dosage</text>
<text text-anchor="middle" x="2705.21" y="-1073.3" font-family="Times,serif" font-size="14.00">contracts/Treatment.sol</text>
<polyline fill="none" stroke="black" points="2631.32,-1065.1 2779.1,-1065.1 "/>
<text text-anchor="start" x="2639.32" y="-1048.5" font-family="Times,serif" font-size="14.00">strength: uint16</text>
<text text-anchor="start" x="2639.32" y="-1031.7" font-family="Times,serif" font-size="14.00">unit: bytes32</text>
</g>
<!-- 1&#45;&gt;12 -->
<g id="edge8" class="edge">
<title>1&#45;&gt;12</title>
<path fill="none" stroke="black" stroke-dasharray="5,2" d="M2529.92,-159.28C2542.23,-169.99 2553.28,-181.99 2562.21,-195.4 2609.2,-265.96 2626.03,-871.85 2649.21,-953.4 2655.06,-973.99 2664.13,-995.45 2673.27,-1014.4"/>
<polygon fill="black" stroke="black" points="2670.19,-1016.07 2677.76,-1023.49 2676.47,-1012.97 2670.19,-1016.07"/>
</g>
<!-- 14 -->
<g id="node15" class="node">
<title>14</title>
<polygon fill="#f2f2f2" stroke="black" points="3388.54,-989.9 3388.54,-1157.1 3537.88,-1157.1 3537.88,-989.9 3388.54,-989.9"/>
<text text-anchor="middle" x="3463.21" y="-1140.5" font-family="Times,serif" font-size="14.00">&lt;&lt;Struct&gt;&gt;</text>
<text text-anchor="middle" x="3463.21" y="-1123.7" font-family="Times,serif" font-size="14.00">Schedule</text>
<text text-anchor="middle" x="3463.21" y="-1106.9" font-family="Times,serif" font-size="14.00">contracts/Treatment.sol</text>
<polyline fill="none" stroke="black" points="3388.54,-1098.7 3537.88,-1098.7 "/>
<text text-anchor="start" x="3396.54" y="-1082.1" font-family="Times,serif" font-size="14.00">startDate: uint256</text>
<text text-anchor="start" x="3396.54" y="-1065.3" font-family="Times,serif" font-size="14.00">endDate: uint256</text>
<text text-anchor="start" x="3396.54" y="-1048.5" font-family="Times,serif" font-size="14.00">frequency: Frequency</text>
<text text-anchor="start" x="3396.54" y="-1031.7" font-family="Times,serif" font-size="14.00">interval: uint8</text>
<text text-anchor="start" x="3396.54" y="-1014.9" font-family="Times,serif" font-size="14.00">daysOfWeek: bytes32[]</text>
<text text-anchor="start" x="3396.54" y="-998.1" font-family="Times,serif" font-size="14.00">timesOfDay: uint16[]</text>
</g>
<!-- 1&#45;&gt;14 -->
<g id="edge9" class="edge">
<title>1&#45;&gt;14</title>
<path fill="none" stroke="black" stroke-dasharray="5,2" d="M2660.43,-88.69C2997.74,-100.77 3503.47,-129.71 3563.21,-195.4 3762.87,-414.95 3603.28,-804.17 3513.67,-980.79"/>
<polygon fill="black" stroke="black" points="3510.5,-979.31 3509.07,-989.8 3516.73,-982.49 3510.5,-979.31"/>
</g>
<!-- 16 -->
<g id="node17" class="node">
<title>16</title>
<polygon fill="#f2f2f2" stroke="black" points="2614.7,-237.9 2614.7,-396.3 3553.72,-396.3 3553.72,-237.9 2614.7,-237.9"/>
<text text-anchor="middle" x="3084.21" y="-379.7" font-family="Times,serif" font-size="14.00">TreatmentFactory</text>
<text text-anchor="middle" x="3084.21" y="-362.9" font-family="Times,serif" font-size="14.00">contracts/TreatmentFactory.sol</text>
<polyline fill="none" stroke="black" points="2614.7,-354.7 3553.72,-354.7 "/>
<text text-anchor="start" x="2622.7" y="-338.1" font-family="Times,serif" font-size="14.00">Public:</text>
<text text-anchor="start" x="2622.7" y="-321.3" font-family="Times,serif" font-size="14.00"> &#160;&#160;treatmentImplementation: address</text>
<polyline fill="none" stroke="black" points="2614.7,-313.1 3553.72,-313.1 "/>
<text text-anchor="start" x="2622.7" y="-296.5" font-family="Times,serif" font-size="14.00">External:</text>
<text text-anchor="start" x="2622.7" y="-279.7" font-family="Times,serif" font-size="14.00"> &#160;&#160;&#160;createTreatment(doctor_: address, patient_: address, medicine_: string, form_: bytes32, dosage_: Dosage, schedule_: Schedule): (clone: address) &lt;&lt;onlyOwner&gt;&gt;</text>
<text text-anchor="start" x="2622.7" y="-262.9" font-family="Times,serif" font-size="14.00">Public:</text>
<text text-anchor="start" x="2622.7" y="-246.1" font-family="Times,serif" font-size="14.00"> &#160;&#160;&#160;constructor()</text>
</g>
<!-- 1&#45;&gt;16 -->
<g id="edge7" class="edge">
<title>1&#45;&gt;16</title>
<path fill="none" stroke="black" d="M2598.79,-158.92C2673.97,-183.27 2757.03,-210.16 2832.87,-234.72"/>
<polygon fill="black" stroke="black" points="2831.97,-238.1 2842.56,-237.85 2834.12,-231.44 2831.97,-238.1"/>
</g>
<!-- 2 -->
<g id="node3" class="node">
<title>2</title>
<polygon fill="#f2f2f2" stroke="black" points="1037.64,-1023.5 1037.64,-1123.5 1166.78,-1123.5 1166.78,-1023.5 1037.64,-1023.5"/>
<text text-anchor="middle" x="1102.21" y="-1106.9" font-family="Times,serif" font-size="14.00">&lt;&lt;Struct&gt;&gt;</text>
<text text-anchor="middle" x="1102.21" y="-1090.1" font-family="Times,serif" font-size="14.00">DoctorStruct</text>
<text text-anchor="middle" x="1102.21" y="-1073.3" font-family="Times,serif" font-size="14.00">contracts/Doctor.sol</text>
<polyline fill="none" stroke="black" points="1037.64,-1065.1 1166.78,-1065.1 "/>
<text text-anchor="start" x="1045.64" y="-1048.5" font-family="Times,serif" font-size="14.00">name: bytes32</text>
<text text-anchor="start" x="1045.64" y="-1031.7" font-family="Times,serif" font-size="14.00">affiliate: bytes32</text>
</g>
<!-- 4 -->
<g id="node5" class="node">
<title>4</title>
<polygon fill="#f2f2f2" stroke="black" points="190.98,-994.3 190.98,-1152.7 943.44,-1152.7 943.44,-994.3 190.98,-994.3"/>
<text text-anchor="middle" x="567.21" y="-1136.1" font-family="Times,serif" font-size="14.00">DoctorFactory</text>
<text text-anchor="middle" x="567.21" y="-1119.3" font-family="Times,serif" font-size="14.00">contracts/DoctorFactory.sol</text>
<polyline fill="none" stroke="black" points="190.98,-1111.1 943.44,-1111.1 "/>
<text text-anchor="start" x="198.98" y="-1094.5" font-family="Times,serif" font-size="14.00">Public:</text>
<text text-anchor="start" x="198.98" y="-1077.7" font-family="Times,serif" font-size="14.00"> &#160;&#160;doctorImplementation: address</text>
<polyline fill="none" stroke="black" points="190.98,-1069.5 943.44,-1069.5 "/>
<text text-anchor="start" x="198.98" y="-1052.9" font-family="Times,serif" font-size="14.00">External:</text>
<text text-anchor="start" x="198.98" y="-1036.1" font-family="Times,serif" font-size="14.00"> &#160;&#160;&#160;createDoctor(doctor_: address, name_: bytes32, affiliate_: bytes32, option_: FromAppOption): (clone: address) &lt;&lt;onlyOwner&gt;&gt;</text>
<text text-anchor="start" x="198.98" y="-1019.3" font-family="Times,serif" font-size="14.00">Public:</text>
<text text-anchor="start" x="198.98" y="-1002.5" font-family="Times,serif" font-size="14.00"> &#160;&#160;&#160;constructor()</text>
</g>
<!-- 4&#45;&gt;3 -->
<g id="edge12" class="edge">
<title>4&#45;&gt;3</title>
<path fill="none" stroke="black" stroke-dasharray="5,2" d="M549.17,-1152.76C532.65,-1224.42 507.53,-1333.35 485.79,-1427.66"/>
<polygon fill="black" stroke="black" points="482.33,-1427.08 483.5,-1437.61 489.15,-1428.65 482.33,-1427.08"/>
</g>
<!-- 4&#45;&gt;8 -->
<g id="edge13" class="edge">
<title>4&#45;&gt;8</title>
<path fill="none" stroke="black" stroke-dasharray="5,2" d="M695.27,-1153.05C711.31,-1165.58 726.78,-1179.2 740.21,-1193.6 845.65,-1306.6 927.05,-1471.54 965.63,-1558.32"/>
<polygon fill="black" stroke="black" points="962.44,-1559.76 969.68,-1567.49 968.84,-1556.93 962.44,-1559.76"/>
</g>
<!-- 9&#45;&gt;2 -->
<g id="edge21" class="edge">
<title>9&#45;&gt;2</title>
<path fill="none" stroke="black" stroke-dasharray="5,2" d="M1300.36,-894.27C1257.33,-924.23 1214.65,-956.37 1176.21,-989.4 1166.84,-997.45 1157.54,-1006.65 1148.86,-1015.94"/>
<polygon fill="black" stroke="black" points="1146.21,-1013.65 1142.03,-1023.39 1151.37,-1018.38 1146.21,-1013.65"/>
</g>
<!-- 9&#45;&gt;3 -->
<g id="edge22" class="edge">
<title>9&#45;&gt;3</title>
<path fill="none" stroke="black" stroke-dasharray="5,2" d="M1169.01,-739.55C799.14,-770.66 305.75,-839.64 182.21,-989.4 134.64,-1047.07 163.16,-1085.31 182.21,-1157.6 207.35,-1253 257.35,-1349.38 306.85,-1429.04"/>
<polygon fill="black" stroke="black" points="303.99,-1431.06 312.26,-1437.68 309.92,-1427.35 303.99,-1431.06"/>
</g>
<!-- 9&#45;&gt;4 -->
<g id="edge14" class="edge">
<title>9&#45;&gt;4</title>
<path fill="none" stroke="black" d="M1168.81,-863.95C1043.53,-907.38 911.28,-953.23 802.77,-990.84"/>
<polygon fill="black" stroke="black" points="801.31,-987.64 793.01,-994.23 803.6,-994.26 801.31,-987.64"/>
</g>
<!-- 9&#45;&gt;5 -->
<g id="edge17" class="edge">
<title>9&#45;&gt;5</title>
<path fill="none" stroke="black" stroke-dasharray="5,2" d="M1168.67,-738.81C791.21,-769.53 282.36,-838.36 152.21,-989.4 111.55,-1036.58 1.84,-1869.69 144.21,-2041.8 196.3,-2104.77 437.14,-2125.89 561.47,-2132.67"/>
<polygon fill="black" stroke="black" points="561.5,-2136.18 571.67,-2133.21 561.87,-2129.19 561.5,-2136.18"/>
</g>
<!-- 9&#45;&gt;6 -->
<g id="edge19" class="edge">
<title>9&#45;&gt;6</title>
<path fill="none" stroke="black" stroke-dasharray="5,2" d="M2027.49,-768.51C2172.25,-807.41 2322.46,-874.36 2423.21,-989.4 2564.14,-1150.32 2516.58,-1846.93 2497.51,-2068.07"/>
<polygon fill="black" stroke="black" points="2494,-2067.97 2496.62,-2078.23 2500.98,-2068.57 2494,-2067.97"/>
</g>
<!-- 9&#45;&gt;7 -->
<g id="edge18" class="edge">
<title>9&#45;&gt;7</title>
<path fill="none" stroke="black" stroke-dasharray="5,2" d="M2027.5,-765.66C2165.8,-804.37 2305.36,-871.93 2391.21,-989.4 2426.02,-1037.02 2524.24,-1871.1 2396.21,-2041.8 2366.47,-2081.46 2233.86,-2109.9 2148.37,-2124.5"/>
<polygon fill="black" stroke="black" points="2147.72,-2121.06 2138.44,-2126.17 2148.88,-2127.96 2147.72,-2121.06"/>
</g>
<!-- 9&#45;&gt;8 -->
<g id="edge16" class="edge">
<title>9&#45;&gt;8</title>
<path fill="none" stroke="black" stroke-dasharray="5,2" d="M1168.91,-857.07C1113.87,-892.23 1064.26,-935.72 1028.21,-989.4 966.72,-1080.97 978.65,-1419.2 986.39,-1557.34"/>
<polygon fill="black" stroke="black" points="982.9,-1557.55 986.96,-1567.33 989.88,-1557.15 982.9,-1557.55"/>
</g>
<!-- 9&#45;&gt;10 -->
<g id="edge20" class="edge">
<title>9&#45;&gt;10</title>
<path fill="none" stroke="black" stroke-dasharray="5,2" d="M2027.55,-773.62C2154.93,-813.24 2280.92,-879.34 2358.21,-989.4 2403.49,-1053.88 2404.42,-1120.11 2378.21,-1184.23"/>
<polygon fill="black" stroke="black" points="2374.88,-1183.11 2374.15,-1193.68 2381.31,-1185.87 2374.88,-1183.11"/>
</g>
<!-- 11 -->
<g id="node12" class="node">
<title>11</title>
<polygon fill="#f2f2f2" stroke="black" points="1185.08,-994.3 1185.08,-1152.7 2349.34,-1152.7 2349.34,-994.3 1185.08,-994.3"/>
<text text-anchor="middle" x="1767.21" y="-1136.1" font-family="Times,serif" font-size="14.00">PatientFactory</text>
<text text-anchor="middle" x="1767.21" y="-1119.3" font-family="Times,serif" font-size="14.00">contracts/PatientFactory.sol</text>
<polyline fill="none" stroke="black" points="1185.08,-1111.1 2349.34,-1111.1 "/>
<text text-anchor="start" x="1193.08" y="-1094.5" font-family="Times,serif" font-size="14.00">Public:</text>
<text text-anchor="start" x="1193.08" y="-1077.7" font-family="Times,serif" font-size="14.00"> &#160;&#160;patientImplementation: address</text>
<polyline fill="none" stroke="black" points="1185.08,-1069.5 2349.34,-1069.5 "/>
<text text-anchor="start" x="1193.08" y="-1052.9" font-family="Times,serif" font-size="14.00">External:</text>
<text text-anchor="start" x="1193.08" y="-1036.1" font-family="Times,serif" font-size="14.00"> &#160;&#160;&#160;createPatient(owner_: address, nameGender_: Bytes32Pair, dob_: uint256, physique_: SmallUintPair, allergy_: string[], habits_: BoolTriple, option_: FromAppOption): (clone: address) &lt;&lt;onlyOwner&gt;&gt;</text>
<text text-anchor="start" x="1193.08" y="-1019.3" font-family="Times,serif" font-size="14.00">Public:</text>
<text text-anchor="start" x="1193.08" y="-1002.5" font-family="Times,serif" font-size="14.00"> &#160;&#160;&#160;constructor()</text>
</g>
<!-- 9&#45;&gt;11 -->
<g id="edge15" class="edge">
<title>9&#45;&gt;11</title>
<path fill="none" stroke="black" d="M1682.96,-894.32C1697.83,-925.78 1712.69,-957.21 1725.7,-984.72"/>
<polygon fill="black" stroke="black" points="1722.6,-986.35 1730.04,-993.89 1728.93,-983.36 1722.6,-986.35"/>
</g>
<!-- 10&#45;&gt;5 -->
<g id="edge23" class="edge">
<title>10&#45;&gt;5</title>
<path fill="none" stroke="black" stroke-dasharray="5,2" d="M1297.12,-1981.45C1252.14,-2003.9 1206.53,-2024.41 1161.21,-2041.8 1007.7,-2100.72 814.53,-2123.08 710.6,-2131.25"/>
<polygon fill="black" stroke="black" points="710.22,-2127.77 700.51,-2132.02 710.75,-2134.75 710.22,-2127.77"/>
</g>
<!-- 10&#45;&gt;6 -->
<g id="edge25" class="edge">
<title>10&#45;&gt;6</title>
<path fill="none" stroke="black" stroke-dasharray="5,2" d="M2372.93,-2041.48C2389.64,-2054.79 2405.1,-2067.11 2418.97,-2078.15"/>
<polygon fill="black" stroke="black" points="2416.94,-2081.01 2426.94,-2084.5 2421.3,-2075.54 2416.94,-2081.01"/>
</g>
<!-- 10&#45;&gt;7 -->
<g id="edge24" class="edge">
<title>10&#45;&gt;7</title>
<path fill="none" stroke="black" stroke-dasharray="5,2" d="M2031.93,-2041.48C2037.76,-2054.47 2043.16,-2066.51 2048.03,-2077.35"/>
<polygon fill="black" stroke="black" points="2044.87,-2078.87 2052.16,-2086.56 2051.26,-2076 2044.87,-2078.87"/>
</g>
<!-- 11&#45;&gt;5 -->
<g id="edge27" class="edge">
<title>11&#45;&gt;5</title>
<path fill="none" stroke="black" stroke-dasharray="5,2" d="M1265.93,-1152.7C1234.05,-1164.61 1208.86,-1178.17 1194.21,-1193.6 931.55,-1470.21 1324.27,-1763.69 1063.21,-2041.8 1015.92,-2092.18 819.92,-2118.39 710.65,-2129.33"/>
<polygon fill="black" stroke="black" points="710.29,-2125.85 700.68,-2130.31 710.97,-2132.82 710.29,-2125.85"/>
</g>
<!-- 11&#45;&gt;6 -->
<g id="edge29" class="edge">
<title>11&#45;&gt;6</title>
<path fill="none" stroke="black" stroke-dasharray="5,2" d="M2328,-1152.76C2358.2,-1164.56 2381.99,-1178.09 2396.21,-1193.6 2512.93,-1320.89 2502.05,-1873.88 2494.4,-2068.02"/>
<polygon fill="black" stroke="black" points="2490.9,-2067.96 2493.99,-2078.09 2497.89,-2068.24 2490.9,-2067.96"/>
</g>
<!-- 11&#45;&gt;7 -->
<g id="edge28" class="edge">
<title>11&#45;&gt;7</title>
<path fill="none" stroke="black" stroke-dasharray="5,2" d="M1351.61,-1152.9C1322.59,-1164.88 1300.09,-1178.41 1288.21,-1193.6 1172.12,-1342.09 1163.08,-1900.83 1288.21,-2041.8 1335.07,-2094.59 1813.04,-2123.13 1999.91,-2132.34"/>
<polygon fill="black" stroke="black" points="1999.76,-2135.84 2009.92,-2132.83 2000.1,-2128.85 1999.76,-2135.84"/>
</g>
<!-- 11&#45;&gt;8 -->
<g id="edge30" class="edge">
<title>11&#45;&gt;8</title>
<path fill="none" stroke="black" stroke-dasharray="5,2" d="M1215.7,-1152.81C1179.79,-1164.69 1150.91,-1178.22 1133.21,-1193.6 1025.45,-1287.22 998.73,-1465 992.21,-1557.47"/>
<polygon fill="black" stroke="black" points="988.72,-1557.3 991.56,-1567.51 995.7,-1557.75 988.72,-1557.3"/>
</g>
<!-- 11&#45;&gt;10 -->
<g id="edge26" class="edge">
<title>11&#45;&gt;10</title>
<path fill="none" stroke="black" stroke-dasharray="5,2" d="M1778.04,-1152.76C1779.38,-1162.47 1780.82,-1172.87 1782.33,-1183.82"/>
<polygon fill="black" stroke="black" points="1778.91,-1184.6 1783.74,-1194.03 1785.84,-1183.64 1778.91,-1184.6"/>
</g>
<!-- 13 -->
<g id="node14" class="node">
<title>13</title>
<polygon fill="#f2f2f2" stroke="black" points="3389.32,-1559.3 3389.32,-1676.1 3537.1,-1676.1 3537.1,-1559.3 3389.32,-1559.3"/>
<text text-anchor="middle" x="3463.21" y="-1659.5" font-family="Times,serif" font-size="14.00">&lt;&lt;Enum&gt;&gt;</text>
<text text-anchor="middle" x="3463.21" y="-1642.7" font-family="Times,serif" font-size="14.00">Frequency</text>
<text text-anchor="middle" x="3463.21" y="-1625.9" font-family="Times,serif" font-size="14.00">contracts/Treatment.sol</text>
<polyline fill="none" stroke="black" points="3389.32,-1617.7 3537.1,-1617.7 "/>
<text text-anchor="start" x="3397.32" y="-1601.1" font-family="Times,serif" font-size="14.00">Interval: 0</text>
<text text-anchor="start" x="3397.32" y="-1584.3" font-family="Times,serif" font-size="14.00">DaysOfWeek: 1</text>
<text text-anchor="start" x="3397.32" y="-1567.5" font-family="Times,serif" font-size="14.00">AsNeeded: 2</text>
</g>
<!-- 14&#45;&gt;13 -->
<g id="edge31" class="edge">
<title>14&#45;&gt;13</title>
<path fill="none" stroke="black" stroke-dasharray="5,2" d="M3463.21,-1157.14C3463.21,-1264.37 3463.21,-1449.45 3463.21,-1548.86"/>
<polygon fill="black" stroke="black" points="3459.71,-1549.09 3463.21,-1559.09 3466.71,-1549.09 3459.71,-1549.09"/>
</g>
<!-- 15 -->
<g id="node16" class="node">
<title>15</title>
<polygon fill="#f2f2f2" stroke="black" points="2732.91,-475.3 2732.91,-952.9 3435.51,-952.9 3435.51,-475.3 2732.91,-475.3"/>
<text text-anchor="middle" x="3084.21" y="-936.3" font-family="Times,serif" font-size="14.00">Treatment</text>
<text text-anchor="middle" x="3084.21" y="-919.5" font-family="Times,serif" font-size="14.00">contracts/Treatment.sol</text>
<polyline fill="none" stroke="black" points="2732.91,-911.3 3435.51,-911.3 "/>
<text text-anchor="start" x="2740.91" y="-894.7" font-family="Times,serif" font-size="14.00">Private:</text>
<text text-anchor="start" x="2740.91" y="-877.9" font-family="Times,serif" font-size="14.00"> &#160;&#160;patient: address</text>
<text text-anchor="start" x="2740.91" y="-861.1" font-family="Times,serif" font-size="14.00"> &#160;&#160;form: bytes32</text>
<text text-anchor="start" x="2740.91" y="-844.3" font-family="Times,serif" font-size="14.00"> &#160;&#160;dosage: Dosage</text>
<text text-anchor="start" x="2740.91" y="-827.5" font-family="Times,serif" font-size="14.00"> &#160;&#160;schedule: Schedule</text>
<text text-anchor="start" x="2740.91" y="-810.7" font-family="Times,serif" font-size="14.00"> &#160;&#160;medicine: string</text>
<text text-anchor="start" x="2740.91" y="-793.9" font-family="Times,serif" font-size="14.00"> &#160;&#160;init: bool</text>
<text text-anchor="start" x="2740.91" y="-777.1" font-family="Times,serif" font-size="14.00">Public:</text>
<text text-anchor="start" x="2740.91" y="-760.3" font-family="Times,serif" font-size="14.00"> &#160;&#160;PATIENT_ROLE: bytes32</text>
<text text-anchor="start" x="2740.91" y="-743.5" font-family="Times,serif" font-size="14.00"> &#160;&#160;DOCTOR_ROLE: bytes32</text>
<polyline fill="none" stroke="black" points="2732.91,-735.3 3435.51,-735.3 "/>
<text text-anchor="start" x="2740.91" y="-718.7" font-family="Times,serif" font-size="14.00">Private:</text>
<text text-anchor="start" x="2740.91" y="-701.9" font-family="Times,serif" font-size="14.00"> &#160;&#160;&#160;hasReadAccess()</text>
<text text-anchor="start" x="2740.91" y="-685.1" font-family="Times,serif" font-size="14.00"> &#160;&#160;&#160;isComplete(): bool</text>
<text text-anchor="start" x="2740.91" y="-668.3" font-family="Times,serif" font-size="14.00">External:</text>
<text text-anchor="start" x="2740.91" y="-651.5" font-family="Times,serif" font-size="14.00"> &#160;&#160;&#160;initialize(doctor_: address, patient_: address, medicine_: string, form_: bytes32, dosage_: Dosage, schedule_: Schedule)</text>
<text text-anchor="start" x="2740.91" y="-634.7" font-family="Times,serif" font-size="14.00"> &#160;&#160;&#160;getPatient(): address &lt;&lt;canRead&gt;&gt;</text>
<text text-anchor="start" x="2740.91" y="-617.9" font-family="Times,serif" font-size="14.00"> &#160;&#160;&#160;getMedicine(): (medicine_: string, isComplete_: bool)</text>
<text text-anchor="start" x="2740.91" y="-601.1" font-family="Times,serif" font-size="14.00"> &#160;&#160;&#160;getTreatment(): (string, bytes32, Dosage, Schedule, bool) &lt;&lt;canRead&gt;&gt;</text>
<text text-anchor="start" x="2740.91" y="-584.3" font-family="Times,serif" font-size="14.00"> &#160;&#160;&#160;edit(medicine_: string) &lt;&lt;onlyRole&gt;&gt;</text>
<text text-anchor="start" x="2740.91" y="-567.5" font-family="Times,serif" font-size="14.00"> &#160;&#160;&#160;edit(form_: bytes32) &lt;&lt;onlyRole&gt;&gt;</text>
<text text-anchor="start" x="2740.91" y="-550.7" font-family="Times,serif" font-size="14.00"> &#160;&#160;&#160;edit(dosage_: Dosage) &lt;&lt;onlyRole&gt;&gt;</text>
<text text-anchor="start" x="2740.91" y="-533.9" font-family="Times,serif" font-size="14.00"> &#160;&#160;&#160;edit(schedule_: Schedule) &lt;&lt;onlyRole&gt;&gt;</text>
<text text-anchor="start" x="2740.91" y="-517.1" font-family="Times,serif" font-size="14.00">Public:</text>
<text text-anchor="start" x="2740.91" y="-500.3" font-family="Times,serif" font-size="14.00"> &#160;&#160;&#160;&lt;&lt;modifier&gt;&gt; canRead()</text>
<text text-anchor="start" x="2740.91" y="-483.5" font-family="Times,serif" font-size="14.00"> &#160;&#160;&#160;constructor()</text>
</g>
<!-- 15&#45;&gt;12 -->
<g id="edge32" class="edge">
<title>15&#45;&gt;12</title>
<path fill="none" stroke="black" d="M2831.94,-952.99C2807.29,-976.24 2784.24,-997.97 2764.74,-1016.37"/>
<polygon fill="black" stroke="black" points="2762.31,-1013.84 2757.44,-1023.25 2767.12,-1018.93 2762.31,-1013.84"/>
</g>
<!-- 15&#45;&gt;14 -->
<g id="edge33" class="edge">
<title>15&#45;&gt;14</title>
<path fill="none" stroke="black" d="M3336.48,-952.99C3352.12,-967.74 3367.11,-981.88 3380.96,-994.94"/>
<polygon fill="black" stroke="black" points="3378.86,-997.77 3388.54,-1002.08 3383.66,-992.68 3378.86,-997.77"/>
</g>
<!-- 16&#45;&gt;12 -->
<g id="edge35" class="edge">
<title>16&#45;&gt;12</title>
<path fill="none" stroke="black" stroke-dasharray="5,2" d="M2809.78,-396.4C2776.23,-416.82 2746.12,-442.5 2724.21,-474.8 2611.21,-641.4 2658.48,-898.51 2688.07,-1013.46"/>
<polygon fill="black" stroke="black" points="2684.78,-1014.68 2690.7,-1023.47 2691.55,-1012.91 2684.78,-1014.68"/>
</g>
<!-- 16&#45;&gt;14 -->
<g id="edge36" class="edge">
<title>16&#45;&gt;14</title>
<path fill="none" stroke="black" stroke-dasharray="5,2" d="M3358.64,-396.4C3392.19,-416.82 3422.3,-442.5 3444.21,-474.8 3547.2,-626.63 3517.06,-853.65 3488.51,-979.71"/>
<polygon fill="black" stroke="black" points="3485.03,-979.19 3486.19,-989.72 3491.85,-980.77 3485.03,-979.19"/>
</g>
<!-- 16&#45;&gt;15 -->
<g id="edge34" class="edge">
<title>16&#45;&gt;15</title>
<path fill="none" stroke="black" stroke-dasharray="5,2" d="M3084.21,-396.61C3084.21,-417.18 3084.21,-440.49 3084.21,-464.9"/>
<polygon fill="black" stroke="black" points="3080.71,-465.06 3084.21,-475.06 3087.71,-465.06 3080.71,-465.06"/>
</g>
</g>
</svg>
