<?xml version="1.0" encoding="UTF-8"?><svg id="Layer_2" xmlns="http://www.w3.org/2000/svg" xmlns:xlink="http://www.w3.org/1999/xlink" viewBox="0 0 1024 1024"><defs><style>.cls-1{fill:url(#linear-gradient);}.cls-2{fill:#fff;}</style><linearGradient id="linear-gradient" x1="0" y1="512" x2="1024" y2="512" gradientUnits="userSpaceOnUse"><stop offset="0" stop-color="#ff6966"/><stop offset="1" stop-color="#4d56ff"/></linearGradient><symbol id="Icon" viewBox="0 0 1024 1024"><g><path id="App_Icon_Placeholder" class="cls-1" d="M356.99,0h310c102.81,0,154.19,0,209.53,17.49,60.42,21.99,108,69.58,129.98,129.99,17.5,55.34,17.5,106.73,17.5,209.53v309.98c0,102.8,0,154.19-17.5,209.53-21.98,60.42-69.57,108-129.98,129.98-55.33,17.5-106.72,17.5-209.53,17.5H356.99c-102.79,0-154.18,0-209.51-17.5-60.42-21.98-108-69.57-129.98-129.98C0,821.18,0,769.79,0,666.99V357.01c0-102.79,0-154.18,17.5-209.53C39.48,87.07,87.07,39.48,147.48,17.49,202.82,0,254.2,0,356.99,0h0"/><g><path class="cls-2" d="M546.84,456.64c-12.33,12.33-20.17,27.47-23.54,43.38,1.57,29.77-8.99,60.07-31.68,82.77l-102.44,102.44-38.25-267.72c18.4-13.32,40.49-20.51,63.71-20.51,9.11,0,18.05,1.11,26.66,3.26,6.67-9.41,14.18-18.32,22.5-26.65l31.63-31.63c-24.81-12.26-52.3-18.76-80.79-18.76-48.77,0-94.62,18.99-129.11,53.48l-154.57,154.57c-34.49,34.49-53.48,80.34-53.48,129.11,0,48.77,18.99,94.62,53.48,129.11,34.49,34.49,80.34,53.48,129.11,53.48s94.62-18.99,129.11-53.48l154.57-154.57c34.49-34.49,53.48-80.34,53.48-129.11,0-28.49-6.49-55.98-18.76-80.79l-31.63,31.63Zm-286.77,312.54c-29.12,0-56.46-11.3-76.98-31.83-42.45-42.45-42.45-111.52,0-153.96l102.44-102.44,38.25,267.72c-18.4,13.32-40.49,20.51-63.71,20.51Z"/><path class="cls-2" d="M892.04,234.49c-34.49-34.49-80.34-53.48-129.11-53.48-48.77,0-94.62,18.99-129.11,53.48l-154.57,154.57c-34.49,34.49-53.48,80.34-53.48,129.11,0,28.49,6.49,55.98,18.76,80.79l31.63-31.63c12.33-12.33,20.17-27.47,23.54-43.38-1.57-29.77,8.99-60.07,31.68-82.77l102.44-102.44,38.25,267.72c-18.4,13.32-40.49,20.51-63.71,20.51-9.11,0-18.05-1.11-26.66-3.26-6.67,9.41-14.18,18.32-22.5,26.65l-31.63,31.63c24.81,12.26,52.3,18.76,80.79,18.76,48.77,0,94.62-18.99,129.11-53.48l154.57-154.57c34.49-34.49,53.48-80.34,53.48-129.11,0-48.77-18.99-94.62-53.48-129.11Zm-52.13,206.09l-102.44,102.44-38.25-267.72c18.4-13.32,40.49-20.51,63.71-20.51,29.12,0,56.46,11.3,76.98,31.83,42.45,42.45,42.45,111.52,0,153.96Z"/></g></g></symbol></defs><g id="App_Icon_Kit_A"><g id="App_Icon_and_Badge_-_Main"><g id="_1024"><use id="_YOUR_ICON_HERE_" width="1024" height="1024" xlink:href="#Icon"/></g></g></g></svg>